<?xml version="1.0" encoding="UTF-8" standalone="no"?>
<svg
   xmlns:dc="http://purl.org/dc/elements/1.1/"
   xmlns:cc="http://creativecommons.org/ns#"
   xmlns:rdf="http://www.w3.org/1999/02/22-rdf-syntax-ns#"
   xmlns:svg="http://www.w3.org/2000/svg"
   xmlns="http://www.w3.org/2000/svg"
   xmlns:sodipodi="http://sodipodi.sourceforge.net/DTD/sodipodi-0.dtd"
   xmlns:inkscape="http://www.inkscape.org/namespaces/inkscape"
   id="svgRoot"
   viewBox="0 0 100 100"
   xml:space="preserve"
   sodipodi:version="0.32"
   inkscape:version="0.46"
   width="222.97539"
   height="255.99997"
   sodipodi:docname="333.svg"
   inkscape:output_extension="org.inkscape.output.svg.inkscape"
   version="1.0"><metadata
   id="metadata426"><rdf:RDF><cc:Work
       rdf:about=""><dc:format>image/svg+xml</dc:format><dc:type
         rdf:resource="http://purl.org/dc/dcmitype/StillImage" /></cc:Work></rdf:RDF></metadata><sodipodi:namedview
   inkscape:window-height="712"
   inkscape:window-width="1024"
   inkscape:pageshadow="2"
   inkscape:pageopacity="0.0"
   guidetolerance="10.0"
   gridtolerance="10.0"
   objecttolerance="10.0"
   borderopacity="1.0"
   bordercolor="#666666"
   pagecolor="#ffffff"
   id="base"
   showgrid="false"
   inkscape:zoom="1.980469"
   inkscape:cx="111.48769"
   inkscape:cy="127.99998"
   inkscape:window-x="-4"
   inkscape:window-y="-4"
   inkscape:current-layer="svgRoot" />
<defs
   id="defs3"><inkscape:perspective
   sodipodi:type="inkscape:persp3d"
   inkscape:vp_x="0 : 526.18109 : 1"
   inkscape:vp_y="0 : 1000 : 0"
   inkscape:vp_z="744.09448 : 526.18109 : 1"
   inkscape:persp3d-origin="372.04724 : 350.78739 : 1"
   id="perspective428" />
</defs>
<g
   transform="matrix(3.8761258,0,0,-3.8761258,-149.04301,228.65065)"
   id="g7">
<g
   id="q1"
   class="">
<clipPath
   id="clp1"
   clip-rule="evenodd">
<path
   d="M -181.8,101.4 L 158.4,101.4 L 158.4,-84.4 L -181.8,-84.4 L -181.8,101.4 z"
   id="path11" />
</clipPath>
<g
   clip-path="url(#clp1)"
   id="g13">
<clipPath
   id="clp2"
   clip-rule="nonzero">
<path
   d="M -410,245.5 L 1177,245.5 L 1177,-405.5 L -410,-405.5 L -410,245.5 z"
   id="path16" />
</clipPath>
<g
   clip-path="url(#clp2)"
   id="g18">
<clipPath
   id="clp3"
   clip-rule="nonzero">
<path
   d="M -409.9,245.5 L 1177.1,245.5 L 1177.1,-405.5 L -409.9,-405.5 L -409.9,245.5 z"
   id="path21" />
</clipPath>
<g
   clip-path="url(#clp3)"
   id="g23">
<path
   d="M 63,53.59 C 62.69,53.63 62.34,53.83 62.05,53.63 C 62.42,52.18 61.31,51.09 60.46,50.06 C 60.46,49.92 60.21,49.83 60.3,49.67 C 61.2,50.76 62.5,51.59 62.44,53.15 C 62.46,53.17 62.46,53.21 62.5,53.24 C 62.93,53.24 63.37,53.13 63.66,52.76 C 63.66,52.7 63.74,52.66 63.66,52.62 C 63.41,52.7 63.16,52.72 62.89,52.68 C 63.24,52.66 63.59,52.56 63.74,52.23 C 63.78,52.1 63.92,51.96 63.84,51.83 C 63.51,52.12 63.02,52.18 62.56,52.12 C 63.1,52 63.7,51.69 63.9,51.11 C 63.86,51.01 63.99,50.86 63.86,50.8 C 63.63,51.15 63.2,51.44 62.83,51.46 C 63.26,51.34 63.61,50.93 63.72,50.49 C 63.74,50.29 63.72,50.1 63.59,49.96 C 63.55,49.92 63.47,49.88 63.45,49.96 C 63.37,50.37 63,50.78 62.6,50.91 C 62.75,50.84 62.91,50.7 63.02,50.56 C 63.14,50.27 63.39,49.83 63.08,49.53 C 62.62,49.3 62.89,49.94 62.71,50.1 C 62.48,50.37 62.17,50.58 61.8,50.56 C 61.66,50.51 61.9,50.51 61.94,50.49 C 62.23,50.41 62.42,50.08 62.5,49.81 C 62.46,49.55 62.46,49.17 62.19,49.05 C 62.11,49.38 62.09,49.77 61.78,49.98 C 61.8,49.96 61.78,49.92 61.8,49.94 C 61.97,49.65 62.09,49.22 61.9,48.91 C 61.82,48.82 61.76,48.62 61.59,48.66 C 61.55,48.85 61.57,49.11 61.49,49.3 C 61.41,49.46 61.26,49.55 61.12,49.63 C 61.31,49.5 61.39,49.28 61.41,49.05 C 61.43,48.85 61.29,48.66 61.18,48.52 C 60.81,48.16 60.93,48.82 60.71,48.89 C 60.87,48.49 60.61,48.16 60.38,47.86 C 60.34,47.71 60.3,47.59 60.23,47.44 C 59.7,47.57 59.27,47.86 58.83,48.23 C 58.34,48.72 57.99,49.42 58.26,50.12 C 58.38,50.58 58.92,51.01 59.33,51.07 C 59,51.05 58.65,50.93 58.38,50.72 C 57.88,50.25 57.8,49.61 57.88,48.97 C 57.74,48.87 57.53,48.89 57.45,48.74 C 57.62,48.76 57.76,48.72 57.93,48.7 C 58.05,48.7 58.17,48.6 58.15,48.47 C 57.93,48.33 57.62,48.43 57.37,48.31 C 57.7,48.33 57.99,48.23 58.32,48.25 C 58.4,48.23 58.5,48.19 58.48,48.08 C 58.07,47.75 57.45,47.92 56.98,47.69 C 57.31,47.71 57.66,47.71 58.01,47.69 C 58.05,47.67 58.09,47.63 58.07,47.57 C 57.74,47.13 57.08,47.34 56.71,47.03 C 56.98,47.09 57.29,47.11 57.58,47.15 C 57.62,47.15 57.66,47.13 57.7,47.11 C 57.45,46.41 56.67,46.66 56.21,46.33 C 56.17,46.54 56.13,46.7 56.07,46.89 C 56.42,47.73 56.9,48.56 57.47,49.28 C 57.76,49.34 57.64,49.71 57.68,49.88 C 57.53,49.98 57.51,50.16 57.41,50.29 C 57.12,51.07 57.25,51.87 57.74,52.49 C 58.28,53.01 59.04,53.17 59.78,52.97 C 59.64,53.05 59.49,53.11 59.35,53.15 C 58.56,53.36 57.8,52.97 57.33,52.45 C 56.96,51.94 56.75,51.3 56.94,50.64 C 56.92,50.37 57.31,50.08 56.94,49.85 C 56.77,49.94 56.85,50.16 56.75,50.27 C 56.81,49.65 56.5,49.15 56.19,48.7 C 55.97,48.93 56.03,49.3 55.84,49.53 C 55.84,49.26 55.89,49.01 55.95,48.76 C 55.95,48.54 56.07,48.16 55.84,48.02 C 55.64,48.25 55.68,48.56 55.51,48.78 C 55.49,48.21 55.91,47.63 55.47,47.15 C 55.37,47.38 55.27,47.61 55.23,47.86 C 55.25,47.57 55.27,47.24 55.27,46.95 C 54.98,46.76 54.94,46.45 54.83,46.19 C 54.81,46.19 54.81,46.19 54.79,46.19 C 54.73,46.37 54.61,46.54 54.52,46.7 C 54.5,46.45 54.67,46.29 54.73,46.08 C 54.73,46.04 54.77,45.92 54.69,45.94 C 54.67,46.21 54.38,46.33 54.17,46.41 C 53.99,46.45 53.82,46.47 53.64,46.52 C 53.72,47.03 53.87,47.53 54.01,48 C 54.15,48.23 54.11,48.52 54.26,48.74 C 54.4,48.35 54.42,47.88 54.55,47.46 C 54.69,47.24 54.73,46.89 54.9,46.74 C 55,47.55 54.59,48.27 54.44,49.01 C 54.55,50.16 55.33,51.15 55.84,52.18 C 55.91,52.56 56.05,52.99 56.07,53.32 C 55.78,52.76 55.45,52.2 55.1,51.67 C 54.75,50.89 54.24,50.1 54.17,49.17 C 54.11,49.2 54.11,49.32 54.05,49.3 C 54.01,48.91 53.87,48.49 53.74,48.12 C 53.68,47.92 53.7,47.71 53.6,47.55 C 53.56,47.51 53.58,47.4 53.49,47.4 C 53.45,47.63 53.58,47.84 53.54,48.08 C 53.74,48.62 53.82,49.22 53.97,49.79 C 53.97,49.81 53.95,49.81 53.93,49.83 C 54.15,50.58 54.22,51.38 54.44,52.1 C 54.48,52.43 54.65,52.74 54.67,53.07 C 54.61,53.07 54.55,52.97 54.5,53.01 C 54.83,53.77 54.9,54.64 55.23,55.38 C 55.84,55.83 56.11,56.49 56.21,57.21 C 56.3,57.81 55.95,58.2 56.07,58.8 C 56.03,59.6 55.49,60.35 54.73,60.59 C 53.8,60.9 52.79,60.59 52.13,60 C 51.8,60.18 51.37,60.28 51.04,60.06 C 50.49,60.53 49.83,60.82 49.15,60.9 C 48.26,60.86 47.37,60.37 46.98,59.62 C 46.84,59.29 46.65,58.86 46.8,58.51 C 46.86,58.61 46.88,58.74 46.96,58.86 C 47.31,59.17 47.23,59.75 47.7,60 C 48.26,60.49 49,60.65 49.74,60.43 C 50.16,60.26 50.73,60.08 50.79,59.58 C 50.46,59.71 50.09,59.87 49.74,59.81 C 50.14,59.67 50.57,59.56 50.86,59.15 C 50.9,59.05 51,58.9 50.9,58.8 C 50.55,58.9 50.05,59.01 49.72,58.86 C 50.18,58.86 50.61,58.74 50.96,58.41 C 50.98,58.33 51.08,58.24 51,58.16 C 50.63,58.22 50.16,58.2 49.93,57.91 C 50.07,58 50.3,58.06 50.51,58.06 C 50.73,58.04 50.94,57.98 51.06,57.77 C 51.08,57.69 51.14,57.58 51.06,57.5 C 50.82,57.46 50.51,57.44 50.36,57.19 C 50.57,57.25 50.92,57.36 51.14,57.17 C 51.33,56.82 50.77,56.82 50.77,56.62 C 50.86,56.66 50.94,56.7 51.04,56.68 C 51.35,56.57 51.19,56.22 51.25,55.98 C 51.27,55.89 51.27,55.77 51.33,55.73 C 51.37,57.07 51.39,58.31 51.21,59.67 C 51.27,59.87 51.47,59.89 51.66,59.87 C 51.72,59.83 51.82,59.75 51.85,59.67 C 51.74,59.07 51.6,58.39 51.66,57.77 C 51.76,58.04 51.76,58.33 51.82,58.59 C 51.93,59.44 52.63,60.12 53.43,60.35 C 53.89,60.43 54.42,60.37 54.75,60.1 C 54.46,60.06 54.05,60.14 53.78,59.95 C 54.09,60.02 54.52,60 54.85,59.89 C 55.25,59.77 55.58,59.44 55.7,59.05 C 55.51,59.01 55.37,59.23 55.16,59.27 C 54.61,59.52 53.7,59.64 53.21,59.19 C 53.78,59.38 54.5,59.34 55.06,59.01 C 55.27,58.78 55.64,58.63 55.64,58.31 C 55.25,58.49 54.85,58.72 54.4,58.68 C 54.61,58.53 54.9,58.57 55.1,58.41 C 55.53,58.14 55.91,57.73 55.84,57.21 C 55.8,57.15 55.84,57.03 55.72,57.07 C 55.45,57.56 54.94,57.89 54.42,58.02 C 55.02,57.79 55.51,57.23 55.58,56.57 C 55.6,56.37 55.47,56.12 55.29,56 C 55.18,56.59 54.73,57.3 54.09,57.44 C 54.34,57.32 54.52,57.09 54.73,56.88 C 54.92,56.57 55.08,56.14 54.96,55.79 C 54.88,55.63 54.75,55.48 54.55,55.46 C 54.48,55.56 54.52,55.75 54.52,55.89 C 54.5,56.53 53.89,57.07 53.33,57.25 C 53.16,57.3 52.92,57.34 52.79,57.23 C 53.43,57.15 53.99,56.64 54.2,56.06 C 54.26,55.71 54.28,55.32 53.99,55.11 C 53.91,55.5 53.78,55.93 53.51,56.18 C 53.62,56.04 53.62,55.85 53.7,55.71 C 53.84,55.28 53.66,54.9 53.39,54.62 C 53.33,54.62 53.27,54.53 53.23,54.62 C 53.27,55.01 53.19,55.34 52.92,55.61 C 52.98,55.34 53.1,55.09 53.04,54.8 C 52.96,54.66 52.9,54.47 52.71,54.39 C 52.2,54.14 52.61,54.97 52.22,55.01 C 52.26,54.84 52.38,54.68 52.32,54.47 C 52.24,54.24 52.05,54.12 51.85,53.96 C 51.72,53.89 51.64,53.65 51.5,53.69 C 50.9,54.68 49.54,54.31 49.02,55.36 C 48.8,56 49,56.68 49.52,57.13 C 49.21,57.07 49.02,56.72 48.84,56.53 C 48.57,56.18 48.65,55.61 48.73,55.17 C 49.19,54.12 50.46,54.08 51.12,53.24 C 51.12,53.09 51.23,52.95 51.1,52.82 C 50.75,53.09 50.38,53.3 49.99,53.44 C 50.18,53.17 50.53,53.05 50.75,52.82 C 50.94,52.58 51.35,52.29 51.1,51.94 C 50.84,52.23 50.44,52.45 50.07,52.6 C 50.38,52.37 50.67,52.08 50.9,51.83 C 51.06,51.63 51.19,51.36 51.19,51.11 C 51.17,50.82 51.17,50.56 51.1,50.29 C 50.88,50.37 50.67,50.62 50.49,50.68 C 50.75,50.37 51.23,50 51.14,49.46 C 50.96,49.32 50.86,49.69 50.69,49.77 C 50.05,50.37 50.77,49.53 50.86,49.44 C 51.04,49.17 51.25,48.82 51.1,48.49 C 50.9,48.64 50.75,48.93 50.55,49.07 C 50.9,48.52 51.33,47.88 51.12,47.05 C 50.94,46.95 50.73,47.07 50.53,47.07 C 50.51,46.93 50.28,46.87 50.36,46.68 C 50.59,46.54 50.77,46.33 50.84,46.06 C 50.49,45.96 50.34,46.33 50.11,46.54 C 49.95,46.56 49.85,46.41 49.72,46.39 C 49.76,46.19 49.78,45.96 49.8,45.75 C 49.97,45.36 49.7,44.97 49.83,44.56 C 50.2,44.27 50.26,44.81 50.49,44.91 C 50.57,44.97 50.71,44.97 50.77,44.91 C 50.82,44.66 50.55,44.48 50.4,44.31 C 50.18,44.27 49.99,43.98 49.76,44.12 C 49.72,45.82 49.58,47.42 49.48,49.07 C 49.93,48.62 50.51,48.12 50.96,47.59 C 50.98,47.61 50.96,47.65 51,47.65 C 50.79,48.49 49.99,48.99 49.37,49.55 C 49.1,50.43 49.04,51.32 48.84,52.2 C 48.75,52.37 48.71,52.58 48.65,52.74 C 49.29,51.94 50.22,51.61 50.84,50.91 C 50.63,51.85 49.48,52.31 48.82,52.88 C 48.26,53.38 48.38,54.24 48.28,54.95 C 48.36,55.09 48.51,54.88 48.63,54.99 C 48.61,55.15 48.42,55.28 48.44,55.46 C 48.38,55.54 48.28,55.52 48.22,55.54 C 47.6,55.85 47.13,56.49 47.11,57.17 C 46.94,58 47.35,58.78 48.01,59.27 C 48.42,59.52 49.04,59.62 49.52,59.42 C 49.15,59.62 48.71,59.71 48.26,59.62 C 47.54,59.46 46.84,58.72 46.73,57.95 C 46.57,57.05 46.88,55.98 47.7,55.36 C 47.83,54.86 47.87,54.35 48.01,53.85 C 47.99,53.81 47.97,53.83 47.95,53.81 C 48.26,52.91 48.38,51.98 48.63,51.05 C 48.71,50.6 48.86,50.16 48.96,49.75 C 48.92,49.73 48.9,49.77 48.88,49.79 C 49.13,48.89 49.31,47.98 49.31,47.01 C 49.15,47.26 49.17,47.61 49.06,47.92 C 48.92,48.33 48.77,48.74 48.73,49.22 C 48.67,49.22 48.65,49.17 48.61,49.24 C 48.4,50.2 47.93,51.07 47.56,51.96 C 47.29,52.49 46.98,53.01 46.75,53.54 C 46.71,53.46 46.82,53.21 46.73,53.07 C 46.57,53.54 46.32,53.94 46.05,54.37 C 45.31,55.28 44.2,55.56 43.07,55.42 C 42.18,55.34 41.36,54.68 41.09,53.87 C 40.43,52.33 41.68,51.03 42.47,49.94 C 41.83,51.11 40.72,52.39 41.42,53.83 C 41.75,54.47 42.43,55.01 43.13,55.09 C 44.1,55.17 45.07,54.99 45.74,54.24 C 46.34,53.48 46.05,52.51 46.14,51.63 C 46.12,52.08 46.22,52.56 46.3,52.99 C 46.3,53.11 46.3,53.3 46.36,53.44 C 46.45,53.42 46.53,53.32 46.55,53.24 C 46.65,52.04 46.07,50.8 46.55,49.65 C 46.65,50.51 46.78,51.38 46.86,52.25 C 46.88,52.27 46.9,52.29 46.92,52.31 C 47.46,51.71 46.98,50.89 46.96,50.18 C 47,50.2 46.96,50.27 47,50.31 C 47.06,50.66 47.17,51.01 47.35,51.3 C 47.91,50.8 47.33,50.12 47.35,49.5 C 47.43,49.81 47.64,50.1 47.77,50.37 C 47.89,50.27 47.89,50.12 47.99,50 C 47.97,49.4 47.62,48.93 47.58,48.33 C 47.66,48.7 47.83,49.13 48.07,49.46 C 48.12,49.46 48.12,49.5 48.14,49.48 C 48.24,49.3 48.36,49.09 48.34,48.87 C 48.03,48.23 47.81,47.55 47.83,46.78 C 47.83,46.74 47.87,46.72 47.89,46.68 C 47.95,46.89 48.01,47.11 48.12,47.32 C 48.28,47.67 48.32,48.1 48.53,48.43 C 48.57,48.39 48.59,48.35 48.59,48.29 C 49,47.81 48.63,47.22 48.47,46.74 C 48.59,46.93 48.67,47.15 48.84,47.32 C 49.02,47.22 49.02,46.91 49.06,46.72 C 49.25,46.04 48.49,46.72 48.26,46.33 C 48.12,46.29 48.05,45.96 47.89,46.1 C 47.89,46.39 47.74,46.64 47.68,46.91 C 47.21,47.22 47.33,47.81 46.98,48.21 C 46.78,49.03 46.14,49.67 45.72,50.41 C 45.58,50.84 45.87,51.28 45.68,51.73 C 46.01,52.41 45.85,53.21 45.58,53.87 C 45.62,54 45.74,53.85 45.79,53.87 C 45.25,54.7 44.3,55.01 43.33,54.9 C 43.09,54.84 42.82,54.76 42.67,54.57 C 42.94,54.68 43.23,54.76 43.56,54.7 C 43.79,54.64 44.08,54.66 44.24,54.45 C 43.83,54.43 43.46,54.39 43.09,54.22 C 43.85,54.33 44.63,54.22 45.13,53.73 C 45.19,53.65 45.33,53.54 45.27,53.44 C 44.67,53.63 44.03,53.83 43.37,53.69 C 43.6,53.67 43.91,53.67 44.18,53.63 C 44.73,53.5 45.42,53.07 45.48,52.45 C 45.25,52.7 45,52.95 44.73,53.13 C 44.1,53.52 43.15,53.4 42.51,53.05 C 42.53,53.03 42.55,53.03 42.55,53.05 C 43.4,53.3 44.41,53.21 44.98,52.47 C 45.04,52.41 45.13,52.31 45.07,52.23 C 44.55,52.49 43.99,52.74 43.37,52.58 C 44.06,52.6 44.78,52.31 45.21,51.67 C 45.29,51.46 45.42,51.22 45.31,50.99 C 44.96,51.54 44.32,51.85 43.64,51.81 C 43.93,51.75 44.24,51.71 44.49,51.54 C 44.92,51.26 45.19,50.82 45.17,50.35 C 45.09,50.25 45.11,50.08 44.94,50.02 C 44.76,50.53 44.43,51.03 43.93,51.28 C 43.62,51.36 43.27,51.44 42.96,51.28 C 43.48,51.36 43.89,51.11 44.2,50.74 C 44.38,50.43 44.63,50.04 44.43,49.67 C 44.18,50.02 43.89,50.31 43.5,50.47 C 43.99,50.14 44.34,49.57 44.28,48.95 C 44.24,48.87 44.18,48.78 44.12,48.74 C 43.95,49.07 43.79,49.4 43.46,49.61 C 43.7,49.26 43.91,48.85 43.81,48.39 C 43.72,48.33 43.7,48.21 43.6,48.23 C 43.46,48.45 43.46,48.78 43.25,48.95 C 43.29,48.87 43.29,48.76 43.35,48.68 C 43.4,48.43 43.37,48.16 43.21,47.96 C 43.02,47.84 42.8,47.75 42.59,47.75 C 42.45,48.95 41,48.62 40.47,49.44 C 40.26,49.85 40.39,50.45 40.65,50.78 C 40.59,50.72 40.51,50.74 40.47,50.68 C 40.2,50.35 40.01,49.9 40.2,49.44 C 40.41,48.41 41.68,48.56 42.32,47.9 C 42.39,47.79 42.43,47.63 42.28,47.57 C 42.34,47.53 42.43,47.48 42.51,47.53 C 43,47.57 43.46,47.77 43.91,47.96 C 44.32,47.67 44.51,47.18 44.88,46.83 C 44.92,46.74 44.84,46.68 44.88,46.6 C 45.07,46.19 45.66,45.84 45.42,45.36 C 45.39,45.01 45.6,44.66 45.91,44.48 C 46.1,44.1 46.16,43.67 46.22,43.24 C 46.22,43.2 46.18,43.18 46.16,43.16 C 45.72,43.03 45.19,43.12 44.94,43.47 C 45.17,43.63 45.35,43.34 45.58,43.38 C 45.62,43.55 45.79,43.67 45.72,43.86 C 45.42,44.21 45.23,44.64 45.11,45.07 C 45.11,45.36 44.76,45.22 44.59,45.28 C 44.45,45.13 44.51,44.87 44.38,44.68 C 44.34,44.62 44.34,44.5 44.22,44.54 C 44.08,44.76 44.18,45.07 44.28,45.28 C 44.18,45.36 44.1,45.51 43.95,45.55 C 43.62,45.34 43.27,45.18 42.94,44.97 C 42.96,44.93 42.92,44.93 42.92,44.91 C 43.11,44.58 43.31,44.29 43.54,44 C 43.48,43.73 43.68,43.51 43.85,43.38 C 44.1,42.97 44.41,42.58 44.61,42.19 C 44.63,41.94 44.59,41.71 44.57,41.47 C 44.71,41.3 44.96,41.34 45.15,41.28 C 45.5,41.18 45.19,40.91 45.29,40.66 C 45.42,40.27 45.89,40.33 46.2,40.15 C 46.26,39.82 46.16,39.51 46.14,39.2 C 46.12,39.16 46.1,39.2 46.07,39.16 C 45.68,39.24 45.35,39.43 44.94,39.49 C 44.51,39.53 44.01,39.59 43.64,39.36 C 43.6,38.75 43.37,38.21 43.25,37.63 C 43.07,37.34 42.84,37.06 42.84,36.68 C 42.82,36.15 43.23,35.76 43.68,35.53 C 43.97,35.47 44.28,35.26 44.59,35.43 C 44.73,35.74 44.76,36.15 45.09,36.29 C 45.44,36.13 45.79,35.88 46.05,35.57 C 45.85,34.75 45.15,34.13 45.09,33.24 C 45.13,33.14 44.96,32.91 45.17,32.93 C 45.95,33.47 46.2,34.33 46.63,35.06 C 46.67,35.04 46.67,35.1 46.69,35.08 C 47.31,34.66 47.95,34.25 48.75,34.31 C 49.13,34.89 49.29,35.63 49.87,36.11 C 49.91,36.11 49.95,36.13 49.97,36.09 C 50.14,35.47 50.73,35.14 51.04,34.6 C 51.08,33.51 51,32.87 51.04,31.78 C 51.1,31.59 51.17,31.37 51.37,31.28 C 51.54,31.51 51.7,31.74 51.74,32.03 C 51.8,32.97 51.66,33.78 51.78,34.77 C 52.13,35.24 52.59,35.55 52.79,36.09 C 52.81,36.09 52.81,36.09 52.84,36.09 C 53.37,35.59 53.62,34.99 53.93,34.4 C 54.67,34.44 55.29,34.83 55.91,35.18 C 55.95,35.18 55.97,35.14 56.01,35.12 C 56.38,34.33 56.52,33.35 57.37,32.91 C 57.41,32.93 57.47,32.95 57.45,33.02 C 57.49,33.74 56.98,34.33 56.75,34.97 C 56.67,35.24 56.3,35.59 56.75,35.78 C 57.06,35.96 57.33,36.29 57.7,36.29 C 57.93,35.96 57.97,35.53 58.23,35.24 C 58.65,35.37 59.08,35.41 59.39,35.78 C 59.66,36.03 59.82,36.42 59.72,36.81 C 59.29,37.51 59.02,38.29 59.04,39.16 C 58.38,39.55 57.43,39.32 56.79,39.05 C 56.69,39.01 56.54,38.91 56.44,38.93 C 56.4,39.32 56.3,39.69 56.32,40.13 C 56.57,40.31 56.96,40.23 57.18,40.46 C 57.37,40.6 57.22,40.79 57.25,40.99 C 57.37,41.3 57.76,41.22 57.99,41.43 C 58.03,41.63 57.97,41.92 57.97,42.13 C 58.13,42.5 58.36,42.87 58.61,43.2 C 58.75,43.34 59.04,43.36 59.08,43.61 C 59.04,44.1 59.43,44.31 59.64,44.68 C 59.62,44.74 59.68,44.81 59.64,44.85 C 59.37,45.01 59.12,45.18 58.87,45.4 C 58.17,45.53 58.67,44.81 58.4,44.5 C 58.19,44.6 58.15,44.83 58.15,45.05 C 58.15,45.26 57.91,45.2 57.76,45.2 C 57.6,44.83 57.43,44.45 57.25,44.08 C 57.22,43.82 56.54,43.57 57.04,43.32 C 57.16,43.2 57.25,43.38 57.37,43.4 C 57.49,43.42 57.68,43.53 57.74,43.36 C 57.45,43.07 57,42.91 56.57,43.07 C 56.5,43.42 56.65,43.71 56.71,44.04 C 56.69,44.45 57.16,44.62 57.25,44.99 C 57.37,45.18 57.25,45.4 57.14,45.57 C 57.37,46.02 57.76,46.35 58.05,46.76 C 57.99,46.78 57.88,46.72 57.82,46.74 C 58.19,47.05 58.48,47.44 58.81,47.79 C 58.85,47.79 58.89,47.79 58.94,47.79 C 59.41,47.59 59.88,47.3 60.44,47.26 C 60.52,47.32 60.42,47.51 60.5,47.63 C 61.08,48.25 62.01,48.19 62.54,48.91 C 63.22,49.13 64.07,49.59 64.19,50.37 C 64.27,50.89 64.13,51.36 64.25,51.87 C 64.27,52.66 63.68,53.3 63,53.59 M 57.18,49.81 C 57.31,49.83 57.2,49.67 57.31,49.63 C 57.31,49.59 57.31,49.55 57.31,49.48 C 56.73,48.85 56.32,48.06 56.01,47.26 C 55.91,47.24 55.8,47.24 55.7,47.22 C 56.05,48.14 56.57,49.01 57.18,49.81 M 55.08,45.28 C 55.12,45.79 55.02,46.37 55.43,46.72 C 55.56,46.85 55.93,47.05 55.91,46.68 C 56.15,45.94 55.43,45.49 55.27,44.87 C 55.2,44.83 55.14,44.78 55.08,44.83 C 55.02,44.95 55.1,45.13 55.08,45.28 M 55.62,44.62 C 55.76,44.7 55.99,44.89 56.15,44.7 C 56.26,44.56 55.84,44.27 56.21,44.31 C 56.73,44.5 56.34,44.02 56.4,43.82 C 56.24,43.63 56.48,43.03 56.05,43.22 C 56.03,43.28 55.91,43.24 55.93,43.34 C 56.11,43.32 56.15,43.55 56.26,43.65 C 56.32,43.88 56.19,44.06 56.05,44.25 C 55.95,44.15 55.84,43.98 55.66,44.06 C 55.64,44.12 55.56,44.1 55.56,44.19 C 55.68,44.17 55.68,44.27 55.72,44.33 C 55.82,44.48 55.62,44.52 55.62,44.62 M 55.6,43.8 C 55.78,43.69 55.95,43.94 56.05,43.84 C 56.03,43.71 55.97,43.57 55.84,43.55 C 55.7,43.51 55.56,43.55 55.47,43.65 C 55.35,43.8 55.2,43.96 55.29,44.15 C 55.35,44.02 55.47,43.88 55.6,43.8 M 55.49,44.35 C 55.16,44.43 54.9,44.64 54.52,44.62 C 54.46,44.72 54.61,44.72 54.69,44.74 C 55.02,44.74 55.29,44.6 55.53,44.43 C 55.53,44.41 55.53,44.37 55.49,44.35 M 54.11,45.3 C 54.28,45.32 54.42,45.24 54.46,45.09 C 54.5,44.83 54.15,44.78 54.26,44.5 C 53.84,44.29 54.15,44.97 53.76,44.72 C 53.49,44.62 53.49,44.29 53.47,44.06 C 53.43,44.04 53.41,44 53.37,44.02 C 53.29,44.39 53.29,44.83 53.37,45.2 C 53.45,45.26 53.49,45.11 53.56,45.05 C 53.68,44.97 53.8,44.85 53.99,44.87 C 54.11,44.99 53.87,45.2 54.11,45.3 M 53.8,44.48 C 53.87,44.39 53.93,44.27 54.03,44.25 C 54.28,44.19 54.42,44.37 54.65,44.39 C 54.67,44.35 54.67,44.33 54.65,44.29 C 54.44,44.15 54.22,43.9 53.91,44.02 C 53.82,44.06 53.78,44.1 53.74,44.19 C 53.68,44.29 53.76,44.39 53.8,44.48 M 53.49,45.92 C 53.58,46.04 53.68,46.14 53.8,46.17 C 54.17,46.21 54.46,46 54.65,45.71 C 54.77,45.46 54.88,45.18 54.83,44.91 C 54.63,44.89 54.71,45.18 54.59,45.28 C 54.44,45.49 54.22,45.59 53.99,45.55 C 53.78,45.46 53.84,45.16 53.7,45.18 C 53.49,45.32 53.41,45.65 53.49,45.92 M 51.97,52.64 C 52.03,52.95 51.87,53.38 52.18,53.56 C 52.81,54.02 53.64,54.14 54.15,54.76 C 54.26,54.78 54.57,54.97 54.52,54.74 C 54.13,53.89 53.04,53.94 52.53,53.19 C 52.53,53.19 52.55,53.17 52.55,53.15 C 53.1,53.65 53.84,53.79 54.46,54.1 C 54.5,53.73 54.07,53.54 53.8,53.32 C 53.41,53.05 52.88,52.91 52.63,52.43 C 52.65,52.43 52.65,52.41 52.67,52.39 C 53.14,52.8 53.7,53.05 54.24,53.26 C 54.22,52.49 53.29,52.47 52.81,52.04 C 52.5,51.75 52.11,51.46 52.18,51.05 C 52.75,51.75 53.64,51.96 54.2,52.6 C 54.09,51.61 52.81,51.36 52.34,50.51 C 52.46,50.53 52.55,50.7 52.69,50.78 C 53,51.11 53.43,51.3 53.84,51.46 C 53.89,50.95 53.29,50.78 52.98,50.49 C 52.77,50.56 52.84,50.31 52.71,50.25 C 52.57,50.16 52.4,49.98 52.34,49.83 C 52.44,49.88 52.53,50 52.65,50.1 C 52.98,50.33 53.31,50.56 53.68,50.66 C 53.58,49.94 52.63,49.69 52.32,49.09 C 52.53,49.17 52.63,49.4 52.88,49.53 C 53.08,49.67 53.31,49.81 53.56,49.92 C 53.62,49.79 53.51,49.69 53.49,49.59 C 52.92,49.05 52.09,48.54 52.03,47.73 C 52.53,48.16 53,48.62 53.43,49.07 C 53.47,48.45 53,47.98 52.55,47.61 C 52.48,47.53 52.32,47.42 52.32,47.28 C 52.42,47.3 52.53,47.51 52.67,47.57 C 52.86,47.63 53,47.86 53.23,47.9 C 53.29,47.22 52.67,46.83 52.3,46.33 C 52.44,46.37 52.57,46.7 52.79,46.74 C 52.9,46.78 53.21,47.09 53.14,46.74 C 53.02,45.96 52.96,45.24 53.02,44.41 C 52.92,44.29 53,44.06 52.88,43.98 C 52.44,44.06 52.05,44.39 51.97,44.81 C 52.4,44.83 52.46,44.06 52.94,44.43 C 53,44.48 52.98,44.66 52.96,44.76 C 52.92,45.05 52.81,45.51 52.98,45.79 C 52.92,46.04 53.25,46.39 52.81,46.47 C 52.48,46.39 52.34,46.06 51.99,45.98 C 51.91,46.25 52.2,46.45 52.38,46.6 C 52.53,46.74 52.3,46.87 52.3,47.03 C 52.18,47.15 51.99,47.01 51.85,47.07 C 51.87,48.87 51.97,50.8 51.97,52.64 M 52.71,44.62 C 52.69,44.58 52.65,44.64 52.61,44.64 C 52.44,44.91 52.15,45.09 51.91,45.22 C 51.85,45.34 51.87,45.51 51.89,45.63 C 52.22,45.75 52.48,45.96 52.77,46.19 C 52.61,45.73 52.57,45.13 52.71,44.62 M 51.35,53.5 C 51.45,53.48 51.5,53.28 51.6,53.38 C 51.66,53.42 51.64,53.46 51.7,53.5 C 51.62,51.28 51.62,49.26 51.56,47.05 C 51.52,46.99 51.43,47.03 51.37,47.03 C 51.33,49.13 51.35,51.28 51.35,53.5 M 50.59,46.8 C 50.59,46.83 50.61,46.85 50.63,46.85 C 51.08,46.68 51.62,46.72 52.11,46.8 C 52.2,46.64 51.91,46.52 51.82,46.41 C 51.74,46.25 51.62,46.08 51.58,45.9 C 51.47,45.84 51.33,45.86 51.23,45.88 C 51.04,46.21 50.92,46.56 50.59,46.8 M 51.72,45.44 C 51.72,45.3 51.64,45.16 51.52,45.11 C 51.37,45.07 51.23,45.11 51.12,45.18 C 51.04,45.26 51.04,45.4 51.06,45.53 C 51.12,45.63 51.25,45.69 51.35,45.71 C 51.52,45.71 51.64,45.59 51.72,45.44 M 49.99,44.72 C 50.05,45.24 50.11,45.77 49.93,46.27 C 49.93,46.31 50.01,46.39 50.07,46.33 C 50.16,46.21 50.28,46.06 50.4,45.94 C 50.53,45.69 51.12,45.79 50.88,45.36 C 50.53,45.24 50.24,45.01 49.99,44.72 M 49.39,45.24 C 49.43,45.22 49.43,45.2 49.45,45.18 C 49.43,44.81 49.5,44.37 49.39,44.06 C 48.92,43.98 49.39,44.52 49.06,44.64 C 49,44.72 48.92,44.78 48.84,44.76 C 48.75,44.6 48.67,44.56 48.51,44.54 C 48.44,44.64 48.55,44.76 48.49,44.89 C 48.42,44.99 48.16,45.07 48.34,45.24 C 48.44,45.34 48.69,45.34 48.75,45.18 C 48.77,45.09 48.67,44.76 48.92,44.89 C 49.08,45.03 49.23,45.09 49.39,45.24 M 49,44.43 C 48.98,44.35 48.96,44.27 48.9,44.23 C 48.8,44.08 48.59,44.1 48.44,44.12 C 48.3,44.19 48.09,44.25 48.09,44.43 C 48.28,44.31 48.51,44.21 48.71,44.31 C 48.82,44.31 48.9,44.58 49,44.43 M 48.22,45.96 C 48.49,46.27 49.02,46.27 49.23,45.92 C 49.27,45.73 49.35,45.44 49.17,45.3 C 49.1,45.24 49.04,45.22 49,45.18 C 48.98,45.36 48.88,45.55 48.69,45.65 C 48.53,45.69 48.42,45.59 48.3,45.53 C 48.12,45.38 48.16,45.09 47.95,45.03 C 47.81,45.36 48.01,45.71 48.22,45.96 M 48.26,44.78 C 48.18,44.7 48.03,44.74 47.91,44.72 C 47.68,44.64 47.46,44.58 47.25,44.43 C 47.17,44.52 47.23,44.6 47.27,44.66 C 47.56,44.81 47.97,45.01 48.26,44.78 M 46.67,44.23 C 46.53,44.23 46.51,43.8 46.4,44.08 C 46.4,44.19 46.3,44.25 46.34,44.37 C 46.47,44.43 46.65,44.37 46.75,44.5 C 46.67,44.62 46.47,44.68 46.57,44.87 C 46.71,44.99 46.94,44.89 47.04,44.76 C 47,44.56 46.9,44.35 47.04,44.17 C 47,44.08 46.86,44.06 46.8,44.12 C 46.75,44.15 46.71,44.19 46.67,44.23 M 46.69,43.42 C 46.65,43.42 46.61,43.36 46.59,43.4 C 46.57,43.49 46.53,43.55 46.55,43.63 C 46.59,43.55 46.71,43.53 46.69,43.42 M 47.23,43.98 C 47.31,44.06 47.56,44.56 47.5,44.1 C 47.43,43.96 47.33,43.8 47.17,43.71 C 47.06,43.71 46.92,43.63 46.82,43.71 C 46.75,43.77 46.73,43.82 46.71,43.88 C 46.88,43.9 47.08,43.86 47.23,43.98 M 47.64,46.29 C 47.68,45.88 47.68,45.42 47.7,45.01 C 47.66,44.97 47.62,44.91 47.56,44.97 C 47.23,45.57 46.59,46.06 46.82,46.83 C 46.88,46.91 46.86,47.03 46.96,47.11 C 47.35,47.03 47.56,46.62 47.64,46.29 M 45.74,49.94 C 46.3,49.17 46.73,48.31 47.04,47.42 C 46.92,47.42 46.92,47.38 46.78,47.4 C 46.45,48.19 46.1,48.99 45.56,49.71 C 45.44,49.81 45.6,50.08 45.74,49.94 M 45.56,46.5 C 45.19,47.07 44.67,47.65 44.28,48.23 C 44.34,48.43 44.53,48.62 44.73,48.8 C 45.02,48.8 45.37,48.78 45.66,48.74 C 45.64,48.87 45.46,48.93 45.35,49.03 C 45.21,49.11 44.94,49.09 44.9,49.28 C 44.98,49.48 45.13,49.61 45.31,49.71 C 45.6,49.3 45.87,48.87 46.1,48.43 C 46.1,48.41 46.07,48.41 46.05,48.39 C 45.7,48.49 45.25,48.49 44.9,48.47 C 45.33,48.31 45.93,48.39 46.26,48 C 46.36,47.9 46.43,47.79 46.45,47.67 C 46.03,47.67 45.58,47.81 45.17,47.77 C 45.6,47.51 46.22,47.63 46.59,47.22 C 46.69,47.15 46.59,47.09 46.59,47.03 C 46.57,47.01 46.55,46.97 46.53,46.99 C 46.24,47.03 45.93,47.11 45.64,47.07 C 45.89,46.89 46.3,46.91 46.55,46.7 C 46.45,46.58 46.57,46.41 46.51,46.27 C 46.16,46.25 45.87,46.39 45.56,46.5 M 46.69,45.69 C 46.53,45.79 46.34,45.86 46.14,45.86 C 46.12,45.96 45.93,45.88 45.85,45.92 C 45.79,45.98 45.68,46.1 45.72,46.14 C 46.03,45.98 46.57,46.08 46.69,45.69 M 45.85,44.81 C 45.72,44.95 45.68,45.13 45.72,45.34 C 45.79,45.51 45.93,45.57 46.07,45.63 C 46.59,45.61 47.04,45.36 47.33,44.93 C 47.37,44.85 47.29,44.83 47.25,44.87 C 47.04,45.09 46.75,45.26 46.4,45.18 C 46.32,45.13 46.24,45.05 46.22,44.97 C 46.18,44.81 46.3,44.74 46.32,44.62 C 46.14,44.64 45.97,44.66 45.85,44.81 M 44.73,45.09 C 44.94,45.03 44.84,44.76 44.92,44.62 C 45,44.25 45.29,43.94 45.5,43.63 C 45.23,43.67 44.92,43.8 44.61,43.82 C 44.49,43.9 44.55,44.06 44.43,44.17 C 44.59,44.45 44.63,44.78 44.73,45.09 M 43.77,44.25 C 43.66,44.5 43.05,44.91 43.64,45.09 C 43.77,45.16 43.87,45.2 43.99,45.26 C 44.06,45.11 43.93,45.01 43.93,44.89 C 43.83,44.64 44.14,44.39 43.87,44.25 C 43.83,44.23 43.81,44.27 43.77,44.25 M 44.03,43.67 C 43.95,43.71 43.89,43.77 43.87,43.88 C 43.89,43.98 43.91,44.1 44.01,44.15 C 44.14,44.19 44.32,44.19 44.36,44.04 C 44.43,43.96 44.43,43.84 44.36,43.75 C 44.3,43.61 44.16,43.63 44.03,43.67 M 45.13,41.92 C 45.11,41.8 45.23,41.71 45.31,41.63 C 45.21,41.59 45.09,41.61 44.98,41.65 C 44.9,41.86 44.94,42.08 45.04,42.25 C 45.25,42.25 45.48,42.27 45.66,42.19 C 45.46,42.13 45.27,42.06 45.13,41.92 M 44.38,35.92 C 44.14,35.96 43.81,36.05 43.75,36.35 C 43.7,36.56 43.79,36.73 43.97,36.83 C 44.26,36.87 44.53,36.73 44.71,36.54 C 44.61,36.33 44.55,36.09 44.38,35.92 M 45.68,33.94 C 45.66,33.72 45.42,33.55 45.33,33.33 C 45.27,33.37 45.29,33.51 45.31,33.59 C 45.58,34.19 45.97,34.73 46.2,35.34 C 46.3,35.37 46.36,35.22 46.43,35.18 C 46.22,34.77 46.01,34.31 45.68,33.94 M 48.53,34.54 C 48.44,34.58 48.28,34.5 48.26,34.6 C 46.53,35.08 45.52,37.08 43.62,37.12 C 43.5,37.04 43.29,36.99 43.25,36.83 C 43.21,36.48 43.46,36.15 43.7,35.98 C 43.91,35.86 44.14,35.76 44.38,35.78 C 44.41,35.63 44.32,35.57 44.18,35.63 C 43.79,35.7 43.4,35.98 43.19,36.35 C 43.09,36.58 43.02,36.87 43.21,37.08 C 43.58,37.41 44.26,37.26 44.67,37.06 C 45.81,36.56 46.71,35.49 47.85,34.95 C 48.12,34.87 48.36,34.71 48.65,34.69 C 48.61,34.64 48.61,34.56 48.53,34.54 M 48.71,34.83 C 48.55,34.81 48.38,34.93 48.22,34.95 C 47.13,35.26 46.45,36.23 45.48,36.73 C 44.92,37.2 44.22,37.51 43.42,37.41 C 43.62,37.9 43.81,38.42 43.87,38.95 C 45.42,39.1 46.67,38.21 47.74,37.2 C 48.32,36.81 48.88,36.31 49.6,36.23 C 49.23,35.82 48.92,35.34 48.71,34.83 M 49.78,36.44 C 49.15,36.33 48.65,36.77 48.14,37.1 C 46.88,38.13 45.64,39.26 43.89,39.08 C 43.89,39.14 43.93,39.16 43.91,39.22 C 45.27,39.36 46.45,38.72 47.43,37.84 C 48.05,37.34 48.69,36.87 49.39,36.6 C 49.48,36.6 49.6,36.58 49.68,36.66 C 49.87,36.93 49.56,37.16 49.48,37.39 C 49.23,37.67 48.98,38 48.65,38.21 C 48.67,38.27 48.71,38.44 48.82,38.35 C 49.19,37.9 49.87,37.34 49.97,36.66 C 49.97,36.54 49.87,36.5 49.78,36.44 M 46.51,39.98 C 46.57,39.94 46.69,39.8 46.73,39.67 C 46.9,39.53 47.02,39.34 47.15,39.18 C 47.25,39.32 47.08,39.51 47.06,39.67 C 46.92,39.92 46.73,39.98 46.59,40.23 C 46.55,40.44 46.61,40.62 46.61,40.83 C 46.92,40.95 47.23,41.1 47.56,41.14 C 47.48,41.01 47.58,40.79 47.48,40.66 C 47.31,40.66 47.25,40.85 47.15,40.95 C 47.13,40.62 47.58,40.33 47.35,39.96 C 47.19,39.98 47.15,40.21 47,40.29 C 47.02,39.92 47.43,39.63 47.23,39.22 C 47.13,39.12 47.23,38.72 47,38.83 C 46.94,38.91 46.86,39.01 46.78,39.05 C 46.84,38.89 46.92,38.75 46.94,38.56 C 46.78,38.66 46.55,38.77 46.4,38.91 C 46.43,39.26 46.59,39.61 46.51,39.98 M 48.16,41.32 C 48.49,41.45 48.84,41.51 49.21,41.55 C 49.21,41.53 49.21,41.53 49.21,41.51 C 49.13,41.53 49.21,41.47 49.17,41.45 C 48.92,41.22 48.59,41.14 48.42,40.87 C 48.63,40.95 48.9,41.14 49.17,41.1 C 49.08,40.81 49.04,40.48 48.73,40.35 C 48.57,40.25 48.38,40.19 48.28,40.02 C 48.47,40.11 48.71,40.19 48.92,40.21 C 48.94,39.67 48.28,39.45 47.95,39.2 C 47.95,39.16 47.87,39.14 47.95,39.08 C 48.22,39.28 48.59,39.28 48.82,39.47 C 48.73,39.32 48.71,39.14 48.61,38.99 C 48.42,38.85 48.2,38.81 48.01,38.66 C 48.14,38.64 48.3,38.68 48.44,38.68 C 48.49,38.56 48.38,38.44 48.34,38.31 C 48.24,38.17 47.99,38.19 47.89,38 C 47.99,37.94 48.07,38.04 48.16,37.98 C 48.14,37.88 48.14,37.72 48.03,37.67 C 47.93,37.84 47.7,37.96 47.54,38.11 C 47.64,38.54 47.89,38.97 47.89,39.43 C 47.99,39.53 47.95,39.67 47.99,39.8 C 48.05,40.31 48.26,40.81 48.16,41.32 M 49.74,40.29 C 49.76,40.27 49.76,40.23 49.78,40.21 C 49.76,39.78 49.87,39.32 49.83,38.87 C 49.54,38.77 49.21,38.64 48.9,38.68 C 48.8,38.89 48.96,39.08 49,39.26 C 49.27,39.59 49.02,40.48 49.74,40.29 M 49.41,40.68 C 49.56,40.68 49.95,40.83 49.76,40.54 C 49.68,40.58 49.19,40.31 49.41,40.68 M 49.8,38.46 C 49.6,38.4 49.39,38.33 49.23,38.23 C 49.15,38.27 49.04,38.37 49,38.5 C 49.29,38.54 49.56,38.6 49.83,38.66 C 49.78,38.6 49.85,38.52 49.8,38.46 M 49.72,37.69 C 49.6,37.84 49.48,37.96 49.39,38.09 C 49.52,38.13 49.62,38.17 49.74,38.17 C 49.83,38 49.76,37.78 49.8,37.59 C 49.7,37.55 49.78,37.69 49.72,37.69 M 48.69,38 C 48.92,37.82 49.17,37.59 49.27,37.34 C 49.29,37.2 49.27,37.06 49.1,37.06 C 48.8,37.12 48.53,37.34 48.3,37.55 C 48.47,37.67 48.42,38.04 48.69,38 M 47.91,41.1 C 47.85,40.81 47.89,40.44 47.81,40.15 C 47.7,39.49 47.54,38.85 47.35,38.23 C 47.29,38.21 47.25,38.31 47.19,38.31 C 47.13,38.4 47.23,38.44 47.25,38.52 C 47.5,39.38 47.64,40.29 47.77,41.2 C 47.87,41.24 47.99,41.22 47.91,41.1 M 51.1,36.42 C 51.1,36.27 51.19,35.9 50.98,35.98 C 50.9,36.07 50.79,36.15 50.71,36.19 C 50.86,35.82 51.27,35.53 51.06,35.1 C 50.53,35.43 50.14,36.09 50.18,36.79 C 50.09,37.22 50.22,37.61 50.14,38.09 C 50.38,37.51 51.31,37.53 51.1,36.81 C 50.94,36.81 50.79,36.97 50.67,37.1 C 50.69,36.83 51.02,36.68 51.1,36.42 M 51.04,38.21 C 51.19,38 51.12,37.69 51.1,37.47 C 50.86,37.82 50.49,38.09 50.14,38.31 C 50.11,39.08 50.14,39.92 50.07,40.7 C 50.32,40.41 50.65,40.04 51.04,39.92 C 51.12,40.04 50.94,40.09 50.94,40.19 C 50.69,40.58 50.34,40.79 50.07,41.1 C 50.03,41.3 50.11,41.53 50.07,41.67 C 50.2,41.69 50.4,41.71 50.57,41.73 C 50.57,41.65 50.67,41.69 50.71,41.63 C 50.84,41.47 50.98,41.34 51.12,41.2 C 51.14,41.07 51.17,40.93 51.1,40.83 C 50.92,40.93 50.73,41.05 50.57,41.12 C 50.71,40.87 51,40.68 51.12,40.39 C 51.12,40.09 51.14,39.69 51.1,39.36 C 50.88,39.38 50.69,39.57 50.53,39.63 C 50.75,39.3 51.31,39.08 51.1,38.56 C 50.96,38.54 50.84,38.72 50.67,38.77 C 50.77,38.58 50.92,38.4 51.04,38.21 M 50.88,41.65 C 50.92,41.73 51.23,41.73 51.1,41.55 C 51,41.53 50.96,41.63 50.88,41.65 M 51.5,35.34 C 51.45,34.11 51.58,32.89 51.41,31.68 C 51.37,31.59 51.33,31.7 51.31,31.72 C 51.29,31.96 51.19,32.15 51.27,32.38 C 51.23,35.59 51.37,38.56 51.29,41.73 C 51.39,41.73 51.47,41.73 51.58,41.71 C 51.52,39.84 51.56,37.61 51.5,35.61 C 51.5,35.51 51.56,35.45 51.5,35.34 M 52.71,40.77 C 52.63,40.56 52.38,40.52 52.24,40.37 C 52.09,40.21 51.87,40.02 51.91,39.82 C 52.18,39.96 52.42,40.13 52.65,40.35 C 52.77,39.86 52.28,39.57 52.05,39.22 C 52.22,39.3 52.38,39.47 52.59,39.49 C 52.75,38.99 52.26,38.81 52.05,38.44 C 52.22,38.46 52.36,38.66 52.55,38.68 C 52.57,38.52 52.63,38.29 52.5,38.15 C 52.2,38 51.89,37.74 51.89,37.39 C 52.15,37.49 52.32,37.69 52.55,37.88 C 52.61,37.8 52.61,37.61 52.55,37.53 C 52.42,37.24 52.09,37.06 51.99,36.79 C 52.15,36.93 52.34,37.01 52.53,37.1 C 52.57,36.73 52.26,36.44 52.09,36.15 C 52.2,36.17 52.32,36.27 52.44,36.27 C 52.55,35.84 52.09,35.53 51.8,35.22 C 51.78,35.65 51.76,36.11 51.78,36.56 C 51.68,38.29 51.89,39.88 51.8,41.65 C 51.93,41.69 52.03,41.69 52.15,41.65 C 52.11,41.59 52.07,41.53 52.01,41.47 C 52.28,41.49 52.46,41.8 52.77,41.63 C 52.59,41.32 52.32,41.16 52.07,40.87 C 52.26,40.93 52.48,41.01 52.67,41.14 C 52.75,41.07 52.71,40.89 52.71,40.77 M 57.29,33.33 C 57.31,33.28 57.25,33.28 57.27,33.24 C 56.61,33.68 56.54,34.6 56.11,35.22 C 56.13,35.3 56.21,35.39 56.3,35.37 C 56.34,35.26 56.42,35.22 56.46,35.12 C 56.73,34.52 56.96,33.9 57.29,33.33 M 58.19,35.8 C 58.07,36.03 57.97,36.25 57.82,36.44 C 57.93,36.62 58.19,36.68 58.42,36.73 C 58.59,36.71 58.77,36.62 58.83,36.46 C 58.89,36.33 58.89,36.15 58.83,36.03 C 58.63,35.94 58.44,35.8 58.19,35.8 M 59.49,36.4 C 59.35,35.84 58.75,35.7 58.32,35.49 C 58.3,35.51 58.23,35.57 58.26,35.63 C 58.65,35.8 59.24,35.9 59.33,36.46 C 59.33,36.68 59.2,36.83 59,36.95 C 58.32,37.16 57.7,36.73 57.14,36.4 C 56.11,35.8 55.25,34.79 54.05,34.66 C 54.03,34.69 54.05,34.73 54.03,34.75 C 54.05,34.73 54.09,34.75 54.07,34.73 C 55.76,35.1 56.9,36.91 58.65,37.16 C 58.92,37.16 59.16,37.1 59.37,36.93 C 59.45,36.77 59.55,36.6 59.49,36.4 M 59.18,37.3 C 57.04,37.49 55.91,35.28 53.99,34.87 C 53.76,35.32 53.51,35.82 53.1,36.19 C 53.97,36.58 54.92,37.12 55.64,37.76 C 56.54,38.37 57.6,39.05 58.79,38.83 C 58.83,38.62 58.81,38.35 58.96,38.17 C 58.94,37.86 59.06,37.57 59.18,37.3 M 56.85,38.85 C 57.47,39.05 58.09,39.22 58.79,39.1 C 58.79,39.05 58.79,39.03 58.79,38.99 C 56.63,39.24 55.18,37.3 53.43,36.46 C 53.23,36.4 52.98,36.31 52.75,36.4 C 52.69,36.81 52.94,37.16 53.12,37.51 C 53.35,37.8 53.62,38.13 53.89,38.31 C 53.93,38.25 53.95,38.17 53.97,38.11 C 53.49,37.67 53.02,37.24 52.94,36.62 C 53.04,36.48 53.23,36.56 53.33,36.62 C 54.57,37.18 55.6,38.27 56.85,38.85 M 53.02,40.17 C 53.14,40.25 53.27,40.13 53.39,40.13 C 53.58,39.65 53.6,39.12 53.8,38.66 C 53.66,38.46 53.41,38.62 53.25,38.66 C 53.14,38.72 52.94,38.66 52.94,38.85 C 53,39.26 53,39.73 53.02,40.17 M 53.31,40.54 C 53.31,40.5 53.31,40.46 53.31,40.41 C 53.21,40.37 53.1,40.48 52.98,40.44 C 52.9,40.77 53.19,40.54 53.31,40.54 M 54.46,40.87 C 54.3,40.89 54.15,40.99 53.99,41.01 C 54.3,40.77 54.63,40.46 54.59,40.02 C 54.44,40.09 54.3,40.17 54.15,40.23 C 54.2,40.06 54.46,39.94 54.57,39.76 C 54.63,39.57 54.77,39.38 54.73,39.2 C 54.52,39.59 54.2,39.76 53.8,39.88 C 53.68,40.04 53.68,40.29 53.66,40.48 C 53.62,40.83 53.54,41.16 53.45,41.49 C 53.78,41.43 54.15,41.43 54.44,41.28 C 54.42,41.14 54.57,40.99 54.46,40.87 M 54.92,40.79 C 55.1,39.94 55.1,38.99 55.43,38.19 C 55.37,38.15 55.33,38.11 55.27,38.11 C 55.08,38.48 55.08,38.93 54.94,39.34 C 54.83,39.96 54.73,40.58 54.69,41.22 C 55,41.26 54.88,40.93 54.92,40.79 M 55.86,40.83 C 55.84,40.62 55.64,40.44 55.56,40.25 C 55.68,40.27 55.74,40.41 55.86,40.39 C 55.95,40.27 55.97,40.11 55.93,39.98 C 55.7,39.78 55.47,39.51 55.51,39.18 C 55.53,39.16 55.53,39.16 55.56,39.14 C 55.68,39.2 56.24,40.15 56.03,39.36 C 56.09,39.14 55.86,38.97 55.8,38.79 C 55.91,38.77 56.09,39.05 56.17,38.83 C 56.17,38.54 55.8,38.58 55.7,38.37 C 55.51,38.42 55.53,38.66 55.47,38.81 C 55.33,39.55 55.2,40.31 55.14,41.07 C 55.29,41.05 55.47,40.91 55.31,40.77 C 55.47,40.79 55.68,40.97 55.86,40.83 M 54.79,37.88 C 54.81,37.74 54.65,37.69 54.57,37.63 C 54.48,37.67 54.48,37.82 54.42,37.9 C 54.2,38.48 54.05,39.1 53.82,39.67 C 54.13,39.18 54.81,39.26 54.92,38.66 C 54.81,38.6 54.75,38.7 54.67,38.68 C 54.77,38.5 55.08,38.29 55.06,37.98 C 54.98,37.84 54.63,38.13 54.79,37.88 M 54.26,37.47 C 54.2,37.28 53.97,37.22 53.8,37.1 C 53.7,37.08 53.56,36.91 53.43,37.04 C 53.41,37.43 53.76,37.78 54.07,37.94 C 54.09,37.82 54.2,37.63 54.26,37.47 M 53.54,38.4 C 53.54,38.31 53.43,38.33 53.41,38.27 C 53.25,38.37 52.75,38.19 52.94,38.56 C 53.14,38.52 53.33,38.44 53.54,38.4 M 53.27,38.07 C 53.14,37.94 53.08,37.8 52.96,37.69 C 52.92,37.8 52.94,37.96 52.94,38.11 C 53.06,38.11 53.16,38.07 53.27,38.07 M 57.02,40.66 C 56.92,40.58 56.77,40.54 56.63,40.54 C 56.65,40.62 56.77,40.64 56.73,40.72 C 53.64,42.37 49.25,42.5 46.07,40.93 C 46.03,40.85 45.83,40.83 45.91,40.7 C 45.93,40.66 45.97,40.66 45.99,40.64 C 45.95,40.56 45.81,40.62 45.7,40.62 C 45.58,40.66 45.58,40.83 45.64,40.91 C 46.28,41.4 47.08,41.59 47.87,41.84 C 50.84,42.64 54.34,42.27 56.96,40.91 C 57.06,40.87 57.06,40.74 57.02,40.66 M 57.7,41.78 C 57.62,41.75 57.49,41.98 57.37,41.94 C 57.25,41.82 57.14,41.69 57.14,41.51 L 57.12,41.51 C 57.02,41.69 56.87,41.86 56.92,42.06 C 57.14,42.13 57.47,42.21 57.7,42.04 C 57.66,41.94 57.78,41.88 57.7,41.78 M 58.67,45.18 C 58.89,45.11 59.06,44.89 59.24,44.74 C 59.22,44.5 58.98,44.35 58.87,44.15 C 58.42,44.15 58.83,44.7 58.65,44.99 C 58.63,45.05 58.65,45.13 58.67,45.18 M 58.5,44.04 C 58.65,44.02 58.77,44 58.81,43.88 C 58.81,43.71 58.75,43.59 58.63,43.53 C 58.5,43.51 58.4,43.57 58.32,43.63 C 58.26,43.69 58.3,43.8 58.3,43.88 C 58.36,43.96 58.42,44 58.5,44.04 M 57.14,43.55 C 57.51,43.98 57.74,44.48 57.88,44.99 C 57.91,44.99 57.93,44.99 57.95,44.99 C 58.01,44.68 58.03,44.35 58.3,44.12 C 58.28,43.98 58.19,43.84 58.15,43.69 C 57.8,43.75 57.43,43.69 57.14,43.55 M 58.19,43.36 C 58.23,43.36 58.3,43.34 58.3,43.28 C 58.09,42.97 57.91,42.62 57.68,42.35 C 57.35,42.29 56.98,42.31 56.69,42.17 C 56.69,41.84 57,41.53 56.94,41.2 C 56.92,41.16 56.87,41.2 56.87,41.16 C 53.62,42.72 49.08,42.87 45.81,41.26 C 45.66,41.22 45.7,41.38 45.72,41.47 C 45.87,41.69 45.97,41.96 46.03,42.23 C 45.99,42.39 45.83,42.31 45.72,42.39 C 45.46,42.43 45.17,42.41 44.92,42.48 C 44.67,42.79 44.47,43.14 44.28,43.49 C 44.32,43.51 44.38,43.53 44.43,43.51 C 44.86,43.05 45.39,42.79 46.03,42.89 C 46.59,42.97 47.13,43.22 47.5,43.71 C 47.56,43.96 47.66,44.17 47.68,44.43 C 47.99,44.58 48.03,44.1 48.24,44.02 C 48.9,43.57 49.95,43.71 50.59,44.1 C 50.92,44.31 50.98,44.66 51.17,44.93 C 51.29,44.91 51.41,44.89 51.54,44.87 C 51.66,44.41 52.03,44.04 52.44,43.82 C 53.14,43.59 54.2,43.55 54.73,44.21 C 54.73,44.29 54.81,44.31 54.88,44.33 C 55.29,44.29 55,43.73 55.27,43.53 C 55.47,43.2 55.86,42.97 56.24,42.83 C 56.98,42.74 57.7,42.85 58.19,43.36 M 56.96,44.97 C 56.9,44.78 56.73,44.64 56.57,44.54 C 56.26,44.43 56.52,44.78 56.36,44.89 C 56.26,45.01 56.09,45.05 55.95,44.99 C 55.72,45.01 55.6,44.7 55.39,44.76 C 55.58,45.13 55.97,45.49 56.4,45.53 C 56.59,45.53 56.77,45.46 56.92,45.36 C 56.98,45.24 57,45.09 56.96,44.97 M 56.81,45.79 C 56.48,45.88 56.19,45.73 55.93,45.63 C 56.21,46.23 56.98,46.23 57.49,46.54 C 57.18,46.35 57.08,46 56.81,45.79"
   class="ps01"
   id="path25"
   style="fill:#000000;fill-rule:nonzero;stroke:none" />
</g>
</g>
</g>
</g>
<g
   id="q2"
   class="">
<clipPath
   id="clp4"
   clip-rule="evenodd">
<path
   d="M -181.8,101.4 L 158.4,101.4 L 158.4,-84.4 L -181.8,-84.4 L -181.8,101.4 z"
   id="path29" />
</clipPath>
<g
   clip-path="url(#clp4)"
   id="g31">
<clipPath
   id="clp5"
   clip-rule="nonzero">
<path
   d="M -410,245.5 L 1177,245.5 L 1177,-405.5 L -410,-405.5 L -410,245.5 z"
   id="path34" />
</clipPath>
<g
   clip-path="url(#clp5)"
   id="g36">
<clipPath
   id="clp6"
   clip-rule="nonzero">
<path
   d="M -409.9,245.5 L 1177.1,245.5 L 1177.1,-405.5 L -409.9,-405.5 L -409.9,245.5 z"
   id="path39" />
</clipPath>
<g
   clip-path="url(#clp6)"
   id="g41">
<path
   d="M 56.21,49.48 C 56.26,49.46 56.26,49.44 56.28,49.42 C 56.69,50.6 56.03,51.83 56.34,52.99 C 56.67,53.89 57.6,54.64 58.48,54.95 C 59.55,55.13 60.71,54.8 61.29,53.87 C 61.31,53.69 61.49,53.52 61.41,53.34 C 61.2,53.42 61.02,53.61 60.79,53.61 C 60.89,53.54 61.04,53.44 61.14,53.34 C 61.24,53.15 61.49,52.99 61.39,52.74 C 61.2,52.8 61.02,52.93 60.85,52.93 C 61.1,52.68 61.45,52.51 61.41,52.14 C 61.29,51.98 61.12,52.25 60.98,52.27 C 61.18,52.1 61.22,51.81 61.26,51.54 C 61.37,51.57 61.37,51.71 61.45,51.77 C 61.72,52.39 61.88,53.11 61.68,53.81 C 61.24,54.97 59.9,55.38 58.67,55.36 C 57.43,55.17 56.4,54.02 56.13,52.82 C 55.86,51.67 56.09,50.62 56.21,49.48"
   class="ps01 ps10"
   id="path43"
   style="fill:#000000;" />
</g>
</g>
</g>
</g>
<g
   id="q3"
   class="">
<clipPath
   id="clp7"
   clip-rule="evenodd">
<path
   d="M -181.8,101.4 L 158.4,101.4 L 158.4,-84.4 L -181.8,-84.4 L -181.8,101.4 z"
   id="path47" />
</clipPath>
<g
   clip-path="url(#clp7)"
   id="g49">
<clipPath
   id="clp8"
   clip-rule="nonzero">
<path
   d="M -410,245.5 L 1177,245.5 L 1177,-405.5 L -410,-405.5 L -410,245.5 z"
   id="path52" />
</clipPath>
<g
   clip-path="url(#clp8)"
   id="g54">
<clipPath
   id="clp9"
   clip-rule="nonzero">
<path
   d="M -409.9,245.5 L 1177.1,245.5 L 1177.1,-405.5 L -409.9,-405.5 L -409.9,245.5 z"
   id="path57" />
</clipPath>
<g
   clip-path="url(#clp9)"
   id="g59">
<path
   d="M 56.96,52.25 C 57.1,52.35 57.1,52.56 57.27,52.66 C 57.39,53.52 58.17,54.22 59,54.45 C 59.68,54.6 60.34,54.43 60.83,53.96 C 60.58,54.45 60.01,54.62 59.53,54.74 C 59.02,54.86 58.54,54.76 58.07,54.62 C 57.68,54.41 57.22,54.16 57.06,53.71 C 57.14,53.71 57.25,53.87 57.33,53.77 C 57.1,53.32 56.87,52.8 56.96,52.25"
   class="ps01 ps10"
   id="path61"
   style="fill:#000000;" />
</g>
</g>
</g>
</g>
<g
   id="q4"
   class="">
<clipPath
   id="clp10"
   clip-rule="evenodd">
<path
   d="M -181.8,101.4 L 158.4,101.4 L 158.4,-84.4 L -181.8,-84.4 L -181.8,101.4 z"
   id="path65" />
</clipPath>
<g
   clip-path="url(#clp10)"
   id="g67">
<clipPath
   id="clp11"
   clip-rule="nonzero">
<path
   d="M -410,245.5 L 1177,245.5 L 1177,-405.5 L -410,-405.5 L -410,245.5 z"
   id="path70" />
</clipPath>
<g
   clip-path="url(#clp11)"
   id="g72">
<clipPath
   id="clp12"
   clip-rule="nonzero">
<path
   d="M -409.9,245.5 L 1177.1,245.5 L 1177.1,-405.5 L -409.9,-405.5 L -409.9,245.5 z"
   id="path75" />
</clipPath>
<g
   clip-path="url(#clp12)"
   id="g77">
<path
   d="M 40.98,51.77 C 40.72,52.39 40.51,53.17 40.76,53.87 C 40.63,54.04 40.41,53.98 40.2,54 C 39.44,53.94 38.76,53.26 38.55,52.58 C 38.47,52.16 38.35,51.63 38.61,51.28 C 38.63,51.4 38.72,51.48 38.68,51.61 C 38.84,51.9 38.72,52.31 38.9,52.6 C 39.17,53.13 39.6,53.56 40.22,53.63 C 40.26,53.61 40.3,53.56 40.3,53.5 C 40.28,53.42 40.2,53.4 40.1,53.42 C 39.87,53.34 39.58,53.13 39.54,52.95 C 39.73,53.07 39.89,53.21 40.12,53.17 C 40.2,53.11 40.35,53.11 40.32,52.99 C 40.12,52.86 39.87,52.88 39.69,52.7 C 39.58,52.53 39.83,52.7 39.91,52.7 C 40.12,52.72 40.3,52.7 40.47,52.56 C 40.45,52.41 40.28,52.37 40.18,52.29 C 40.12,52.1 40.06,52.08 40.26,52.2 C 40.65,52.39 40.67,51.85 40.98,51.77"
   class="ps01 ps10"
   id="path79"
   style="fill:#000000;" />
</g>
</g>
</g>
</g>
<g
   id="q5"
   class="">
<clipPath
   id="clp13"
   clip-rule="evenodd">
<path
   d="M -181.8,101.4 L 158.4,101.4 L 158.4,-84.4 L -181.8,-84.4 L -181.8,101.4 z"
   id="path83" />
</clipPath>
<g
   clip-path="url(#clp13)"
   id="g85">
<clipPath
   id="clp14"
   clip-rule="nonzero">
<path
   d="M -410,245.5 L 1177,245.5 L 1177,-405.5 L -410,-405.5 L -410,245.5 z"
   id="path88" />
</clipPath>
<g
   clip-path="url(#clp14)"
   id="g90">
<clipPath
   id="clp15"
   clip-rule="nonzero">
<path
   d="M -409.9,245.5 L 1177.1,245.5 L 1177.1,-405.5 L -409.9,-405.5 L -409.9,245.5 z"
   id="path93" />
</clipPath>
<g
   clip-path="url(#clp15)"
   id="g95">
<path
   d="M 39.27,50.14 C 39.01,50.53 38.86,50.99 39.01,51.48 C 39.15,51.83 39.4,52.25 39.73,52.37 C 39.66,52.37 39.56,52.29 39.46,52.29 C 39.03,52 38.74,51.48 38.72,50.93 C 38.7,50.18 39.17,49.5 39.83,49.24 C 39.91,49.24 40.01,49.15 40.06,49.24 C 40.08,49.75 39.46,49.71 39.27,50.14"
   class="ps01 ps10"
   id="path97"
   style="fill:#000000;" />
</g>
</g>
</g>
</g>
<g
   id="q6"
   class="">
<clipPath
   id="clp16"
   clip-rule="evenodd">
<path
   d="M -181.8,101.4 L 158.4,101.4 L 158.4,-84.4 L -181.8,-84.4 L -181.8,101.4 z"
   id="path101" />
</clipPath>
<g
   clip-path="url(#clp16)"
   id="g103">
<clipPath
   id="clp17"
   clip-rule="nonzero">
<path
   d="M -410,245.5 L 1177,245.5 L 1177,-405.5 L -410,-405.5 L -410,245.5 z"
   id="path106" />
</clipPath>
<g
   clip-path="url(#clp17)"
   id="g108">
<clipPath
   id="clp18"
   clip-rule="nonzero">
<path
   d="M -409.9,245.5 L 1177.1,245.5 L 1177.1,-405.5 L -409.9,-405.5 L -409.9,245.5 z"
   id="path111" />
</clipPath>
<g
   clip-path="url(#clp18)"
   id="g113">
<path
   d="M 47.25,49.2 C 47.26,49.19 47.26,49.21 47.27,49.24 C 47.26,49.22 47.25,49.21 47.25,49.2"
   class="ps01 ps10"
   id="path115"
   style="fill:#000000;" />
</g>
</g>
</g>
</g>
<g
   id="q7"
   class="">
<clipPath
   id="clp19"
   clip-rule="evenodd">
<path
   d="M -181.8,101.4 L 158.4,101.4 L 158.4,-84.4 L -181.8,-84.4 L -181.8,101.4 z"
   id="path119" />
</clipPath>
<g
   clip-path="url(#clp19)"
   id="g121">
<clipPath
   id="clp20"
   clip-rule="nonzero">
<path
   d="M -410,245.5 L 1177,245.5 L 1177,-405.5 L -410,-405.5 L -410,245.5 z"
   id="path124" />
</clipPath>
<g
   clip-path="url(#clp20)"
   id="g126">
<clipPath
   id="clp21"
   clip-rule="nonzero">
<path
   d="M -409.9,245.5 L 1177.1,245.5 L 1177.1,-405.5 L -409.9,-405.5 L -409.9,245.5 z"
   id="path129" />
</clipPath>
<g
   clip-path="url(#clp21)"
   id="g131">
<path
   d="M 47.33,49.48 C 47.29,49.43 47.28,49.31 47.27,49.24 C 47.3,49.31 47.35,49.38 47.33,49.48"
   class="ps01 ps10"
   id="path133"
   style="fill:#000000;" />
</g>
</g>
</g>
</g>
<g
   id="q8"
   class="">
<clipPath
   id="clp22"
   clip-rule="evenodd">
<path
   d="M -181.8,101.4 L 158.4,101.4 L 158.4,-84.4 L -181.8,-84.4 L -181.8,101.4 z"
   id="path137" />
</clipPath>
<g
   clip-path="url(#clp22)"
   id="g139">
<clipPath
   id="clp23"
   clip-rule="nonzero">
<path
   d="M -410,245.5 L 1177,245.5 L 1177,-405.5 L -410,-405.5 L -410,245.5 z"
   id="path142" />
</clipPath>
<g
   clip-path="url(#clp23)"
   id="g144">
<clipPath
   id="clp24"
   clip-rule="nonzero">
<path
   d="M -409.9,245.5 L 1177.1,245.5 L 1177.1,-405.5 L -409.9,-405.5 L -409.9,245.5 z"
   id="path147" />
</clipPath>
<g
   clip-path="url(#clp24)"
   id="g149">
<path
   d="M 51.66,43.84 C 51.52,43.94 51.33,44.02 51.17,43.9 C 50.9,43.69 50.57,43.53 50.44,43.26 C 50.46,43.2 50.51,43.2 50.53,43.14 C 50.9,42.99 51.27,42.33 51.68,42.81 C 51.85,42.99 52.15,43.07 52.22,43.32 C 52.05,43.51 51.89,43.65 51.66,43.84 M 51.66,43.4 C 51.54,43.38 51.41,43.51 51.29,43.42 C 51.25,43.26 51.31,43.07 51.31,42.91 C 51.08,42.99 50.86,43.07 50.69,43.28 C 50.86,43.49 51.06,43.65 51.29,43.75 C 51.54,43.65 51.87,43.55 51.97,43.3 C 51.85,43.14 51.8,43.42 51.66,43.4"
   class="ps01 ps10"
   id="path151"
   style="fill:#000000;" />
</g>
</g>
</g>
</g>
<g
   id="q9"
   class="">
<clipPath
   id="clp25"
   clip-rule="evenodd">
<path
   d="M -181.8,101.4 L 158.4,101.4 L 158.4,-84.4 L -181.8,-84.4 L -181.8,101.4 z"
   id="path155" />
</clipPath>
<g
   clip-path="url(#clp25)"
   id="g157">
<clipPath
   id="clp26"
   clip-rule="nonzero">
<path
   d="M -410,245.5 L 1177,245.5 L 1177,-405.5 L -410,-405.5 L -410,245.5 z"
   id="path160" />
</clipPath>
<g
   clip-path="url(#clp26)"
   id="g162">
<clipPath
   id="clp27"
   clip-rule="nonzero">
<path
   d="M -409.9,245.5 L 1177.1,245.5 L 1177.1,-405.5 L -409.9,-405.5 L -409.9,245.5 z"
   id="path165" />
</clipPath>
<g
   clip-path="url(#clp27)"
   id="g167">
<path
   d="M 49.72,43.09 C 49.83,43.03 49.93,43.18 49.99,43.26 C 49.99,43.36 50.01,43.47 49.93,43.53 C 49.85,43.59 49.76,43.65 49.64,43.63 C 49.52,43.59 49.45,43.44 49.48,43.32 C 49.52,43.2 49.6,43.12 49.72,43.09 M 49.7,43.51 C 49.76,43.55 49.85,43.49 49.87,43.42 C 49.87,43.34 49.8,43.26 49.74,43.26 C 49.68,43.26 49.64,43.28 49.6,43.32 C 49.58,43.4 49.62,43.49 49.7,43.51"
   class="ps01 ps10"
   id="path169"
   style="fill:#000000;" />
</g>
</g>
</g>
</g>
<g
   id="q10"
   class="">
<clipPath
   id="clp28"
   clip-rule="evenodd">
<path
   d="M -181.8,101.4 L 158.4,101.4 L 158.4,-84.4 L -181.8,-84.4 L -181.8,101.4 z"
   id="path173" />
</clipPath>
<g
   clip-path="url(#clp28)"
   id="g175">
<clipPath
   id="clp29"
   clip-rule="nonzero">
<path
   d="M -410,245.5 L 1177,245.5 L 1177,-405.5 L -410,-405.5 L -410,245.5 z"
   id="path178" />
</clipPath>
<g
   clip-path="url(#clp29)"
   id="g180">
<clipPath
   id="clp30"
   clip-rule="nonzero">
<path
   d="M -409.9,245.5 L 1177.1,245.5 L 1177.1,-405.5 L -409.9,-405.5 L -409.9,245.5 z"
   id="path183" />
</clipPath>
<g
   clip-path="url(#clp30)"
   id="g185">
<path
   d="M 53.1,43.01 C 53.27,43.05 53.35,43.24 53.29,43.38 C 53.23,43.59 52.96,43.67 52.84,43.51 C 52.77,43.4 52.75,43.28 52.79,43.18 C 53.35,42.93 52.48,42.89 52.77,42.54 C 52.81,42.43 52.92,42.35 53.04,42.39 C 53.16,42.46 53.31,42.52 53.29,42.7 C 53.31,42.85 53.1,42.89 53.04,42.97 C 53.06,43.01 53.08,43.01 53.1,43.01 M 53.1,42.72 C 53.12,42.6 53.02,42.56 52.94,42.6 C 52.9,42.66 52.9,42.72 52.94,42.76 C 53,42.76 53.1,42.81 53.1,42.72 M 52.92,43.3 C 52.92,43.44 53.16,43.4 53.19,43.32 C 53.21,43.24 53.12,43.2 53.08,43.18 C 53.02,43.16 52.94,43.22 52.92,43.3"
   class="ps01 ps10"
   id="path187"
   style="fill:#000000;" />
</g>
</g>
</g>
</g>
<g
   id="q11"
   class="">
<clipPath
   id="clp31"
   clip-rule="evenodd">
<path
   d="M -181.8,101.4 L 158.4,101.4 L 158.4,-84.4 L -181.8,-84.4 L -181.8,101.4 z"
   id="path191" />
</clipPath>
<g
   clip-path="url(#clp31)"
   id="g193">
<clipPath
   id="clp32"
   clip-rule="nonzero">
<path
   d="M -410,245.5 L 1177,245.5 L 1177,-405.5 L -410,-405.5 L -410,245.5 z"
   id="path196" />
</clipPath>
<g
   clip-path="url(#clp32)"
   id="g198">
<clipPath
   id="clp33"
   clip-rule="nonzero">
<path
   d="M -409.9,245.5 L 1177.1,245.5 L 1177.1,-405.5 L -409.9,-405.5 L -409.9,245.5 z"
   id="path201" />
</clipPath>
<g
   clip-path="url(#clp33)"
   id="g203">
<path
   d="M 48.18,43.51 C 47.83,43.49 47.46,43.28 47.33,42.93 C 47.27,42.72 47.35,42.56 47.52,42.41 C 47.7,42.29 47.91,42.27 48.16,42.31 C 48.49,42.39 48.9,42.54 49,42.91 C 49,43.07 48.98,43.24 48.86,43.36 C 48.65,43.47 48.44,43.55 48.18,43.51 M 48.55,42.68 C 48.67,42.76 48.65,42.93 48.71,43.05 C 48.71,43.18 48.57,43.22 48.49,43.28 C 48.42,43.28 48.32,43.28 48.3,43.22 C 48.47,43.05 48.2,42.97 48.09,42.91 C 47.93,42.76 47.68,43.01 47.56,42.81 C 47.56,42.76 47.7,42.54 47.54,42.7 C 47.52,42.83 47.52,42.99 47.6,43.09 C 47.85,43.38 48.26,43.38 48.63,43.32 C 48.71,43.28 48.82,43.2 48.82,43.09 C 48.82,42.91 48.71,42.74 48.55,42.68"
   class="ps01 ps10"
   id="path205"
   style="fill:#000000;" />
</g>
</g>
</g>
</g>
<g
   id="q12"
   class="">
<clipPath
   id="clp34"
   clip-rule="evenodd">
<path
   d="M -181.8,101.4 L 158.4,101.4 L 158.4,-84.4 L -181.8,-84.4 L -181.8,101.4 z"
   id="path209" />
</clipPath>
<g
   clip-path="url(#clp34)"
   id="g211">
<clipPath
   id="clp35"
   clip-rule="nonzero">
<path
   d="M -410,245.5 L 1177,245.5 L 1177,-405.5 L -410,-405.5 L -410,245.5 z"
   id="path214" />
</clipPath>
<g
   clip-path="url(#clp35)"
   id="g216">
<clipPath
   id="clp36"
   clip-rule="nonzero">
<path
   d="M -409.9,245.5 L 1177.1,245.5 L 1177.1,-405.5 L -409.9,-405.5 L -409.9,245.5 z"
   id="path219" />
</clipPath>
<g
   clip-path="url(#clp36)"
   id="g221">
<path
   d="M 54.96,43.32 C 54.67,43.4 54.17,43.55 53.93,43.24 C 53.8,43.12 53.76,42.93 53.8,42.76 C 53.91,42.5 54.13,42.35 54.38,42.29 C 54.67,42.21 55,42.27 55.23,42.43 C 55.31,42.6 55.43,42.79 55.33,42.97 C 55.29,43.16 55.08,43.2 54.96,43.32 M 54.79,42.93 C 54.73,42.81 54.5,42.85 54.38,42.89 C 54.28,42.93 54.32,43.18 54.15,43.09 C 54.05,43.03 54.09,42.93 54.03,42.87 C 53.95,43.03 54.11,43.18 54.24,43.26 C 54.42,43.3 54.63,43.28 54.77,43.2 C 54.73,43.12 54.85,43.01 54.79,42.93 M 55.2,42.72 C 55.12,42.58 54.98,42.48 54.81,42.48 C 54.94,42.54 55.14,42.62 55.14,42.81 C 55.12,42.97 55.25,42.79 55.2,42.72"
   class="ps01 ps10"
   id="path223"
   style="fill:#000000;" />
</g>
</g>
</g>
</g>
<g
   id="q13"
   class="">
<clipPath
   id="clp37"
   clip-rule="evenodd">
<path
   d="M -181.8,101.4 L 158.4,101.4 L 158.4,-84.4 L -181.8,-84.4 L -181.8,101.4 z"
   id="path227" />
</clipPath>
<g
   clip-path="url(#clp37)"
   id="g229">
<clipPath
   id="clp38"
   clip-rule="nonzero">
<path
   d="M -410,245.5 L 1177,245.5 L 1177,-405.5 L -410,-405.5 L -410,245.5 z"
   id="path232" />
</clipPath>
<g
   clip-path="url(#clp38)"
   id="g234">
<clipPath
   id="clp39"
   clip-rule="nonzero">
<path
   d="M -409.9,245.5 L 1177.1,245.5 L 1177.1,-405.5 L -409.9,-405.5 L -409.9,245.5 z"
   id="path237" />
</clipPath>
<g
   clip-path="url(#clp39)"
   id="g239">
<path
   d="M 49.74,43.03 C 49.58,42.95 49.52,42.81 49.56,42.62 C 49.58,42.48 49.78,42.46 49.93,42.5 C 50.07,42.54 50.07,42.7 50.07,42.81 C 50.01,42.95 49.87,42.99 49.74,43.03 M 49.85,42.62 C 49.76,42.58 49.7,42.68 49.7,42.74 C 49.7,42.79 49.74,42.87 49.8,42.87 C 49.89,42.87 49.91,42.81 49.93,42.76 C 49.93,42.7 49.91,42.64 49.85,42.62"
   class="ps01 ps10"
   id="path241"
   style="fill:#000000;" />
</g>
</g>
</g>
</g>
<g
   id="q14"
   class="">
<clipPath
   id="clp40"
   clip-rule="evenodd">
<path
   d="M -181.8,101.4 L 158.4,101.4 L 158.4,-84.4 L -181.8,-84.4 L -181.8,101.4 z"
   id="path245" />
</clipPath>
<g
   clip-path="url(#clp40)"
   id="g247">
<clipPath
   id="clp41"
   clip-rule="nonzero">
<path
   d="M -410,245.5 L 1177,245.5 L 1177,-405.5 L -410,-405.5 L -410,245.5 z"
   id="path250" />
</clipPath>
<g
   clip-path="url(#clp41)"
   id="g252">
<clipPath
   id="clp42"
   clip-rule="nonzero">
<path
   d="M -409.9,245.5 L 1177.1,245.5 L 1177.1,-405.5 L -409.9,-405.5 L -409.9,245.5 z"
   id="path255" />
</clipPath>
<g
   clip-path="url(#clp42)"
   id="g257">
<path
   d="M 46.8,42.39 C 46.82,42.5 46.94,42.6 46.88,42.72 C 46.84,42.85 46.71,42.93 46.57,42.89 C 46.34,42.87 46.4,42.62 46.4,42.5 C 46.45,42.35 46.59,42.41 46.67,42.33 C 46.69,42.27 46.65,42.25 46.63,42.21 C 46.63,42.11 46.57,41.92 46.73,41.84 C 46.8,41.78 46.92,41.8 46.98,41.84 C 47.11,41.92 47.17,42.02 47.15,42.17 C 47.04,42.29 46.92,42.29 46.8,42.39 M 46.61,42.56 C 46.53,42.56 46.51,42.68 46.55,42.74 C 46.61,42.76 46.71,42.76 46.75,42.68 C 46.75,42.6 46.65,42.6 46.61,42.56 M 46.88,41.98 C 46.82,41.98 46.75,42 46.75,42.06 C 46.75,42.17 46.92,42.23 46.96,42.13 C 46.98,42.06 46.94,41.98 46.88,41.98"
   class="ps01 ps10"
   id="path259"
   style="fill:#000000;" />
</g>
</g>
</g>
</g>
<g
   id="q15"
   class="">
<clipPath
   id="clp43"
   clip-rule="evenodd">
<path
   d="M -181.8,101.4 L 158.4,101.4 L 158.4,-84.4 L -181.8,-84.4 L -181.8,101.4 z"
   id="path263" />
</clipPath>
<g
   clip-path="url(#clp43)"
   id="g265">
<clipPath
   id="clp44"
   clip-rule="nonzero">
<path
   d="M -410,245.5 L 1177,245.5 L 1177,-405.5 L -410,-405.5 L -410,245.5 z"
   id="path268" />
</clipPath>
<g
   clip-path="url(#clp44)"
   id="g270">
<clipPath
   id="clp45"
   clip-rule="nonzero">
<path
   d="M -409.9,245.5 L 1177.1,245.5 L 1177.1,-405.5 L -409.9,-405.5 L -409.9,245.5 z"
   id="path273" />
</clipPath>
<g
   clip-path="url(#clp45)"
   id="g275">
<path
   d="M 55.91,42.62 C 55.89,42.52 55.89,42.35 55.99,42.29 C 56.07,42.25 56.15,42.31 56.21,42.31 C 56.36,42.35 56.4,42.48 56.38,42.6 C 56.36,42.7 56.28,42.76 56.19,42.79 C 56.07,42.81 55.97,42.72 55.91,42.62 M 56.24,42.58 C 56.24,42.52 56.19,42.43 56.11,42.43 C 56.07,42.46 56.05,42.48 56.03,42.52 C 55.99,42.6 56.05,42.58 56.09,42.64 C 56.15,42.66 56.21,42.64 56.24,42.58"
   class="ps01 ps10"
   id="path277"
   style="fill:#000000;" />
</g>
</g>
</g>
</g>
<g
   id="q16"
   class="">
<clipPath
   id="clp46"
   clip-rule="evenodd">
<path
   d="M -181.8,101.4 L 158.4,101.4 L 158.4,-84.4 L -181.8,-84.4 L -181.8,101.4 z"
   id="path281" />
</clipPath>
<g
   clip-path="url(#clp46)"
   id="g283">
<clipPath
   id="clp47"
   clip-rule="nonzero">
<path
   d="M -410,245.5 L 1177,245.5 L 1177,-405.5 L -410,-405.5 L -410,245.5 z"
   id="path286" />
</clipPath>
<g
   clip-path="url(#clp47)"
   id="g288">
<clipPath
   id="clp48"
   clip-rule="nonzero">
<path
   d="M -409.9,245.5 L 1177.1,245.5 L 1177.1,-405.5 L -409.9,-405.5 L -409.9,245.5 z"
   id="path291" />
</clipPath>
<g
   clip-path="url(#clp48)"
   id="g293">
<path
   d="M 55.91,42.21 C 55.74,42.19 55.7,42 55.66,41.88 C 55.7,41.69 55.86,41.63 56.03,41.69 C 56.17,41.73 56.24,41.88 56.21,42.02 C 56.17,42.15 56.05,42.23 55.91,42.21 M 56.01,41.84 C 55.93,41.84 55.84,41.84 55.84,41.92 C 55.8,42 55.86,42.02 55.93,42.06 C 55.99,42.08 56.05,42.06 56.07,42 C 56.09,41.92 56.05,41.88 56.01,41.84"
   class="ps01 ps10"
   id="path295"
   style="fill:#000000;" />
</g>
</g>
</g>
</g>
<g
   id="q17"
   class="">
<clipPath
   id="clp49"
   clip-rule="evenodd">
<path
   d="M -181.8,101.4 L 158.4,101.4 L 158.4,-84.4 L -181.8,-84.4 L -181.8,101.4 z"
   id="path299" />
</clipPath>
<g
   clip-path="url(#clp49)"
   id="g301">
<clipPath
   id="clp50"
   clip-rule="nonzero">
<path
   d="M -410,245.5 L 1177,245.5 L 1177,-405.5 L -410,-405.5 L -410,245.5 z"
   id="path304" />
</clipPath>
<g
   clip-path="url(#clp50)"
   id="g306">
<clipPath
   id="clp51"
   clip-rule="nonzero">
<path
   d="M -409.9,245.5 L 1177.1,245.5 L 1177.1,-405.5 L -409.9,-405.5 L -409.9,245.5 z"
   id="path309" />
</clipPath>
<g
   clip-path="url(#clp51)"
   id="g311">
<path
   d="M 44.92,38.79 C 44.71,38.83 44.49,38.91 44.26,38.87 C 44.55,38.56 44.22,38.25 44.18,37.94 C 44.16,37.74 43.97,37.67 43.89,37.53 C 44.1,37.51 44.28,37.41 44.49,37.39 C 44.61,37.41 44.49,37.49 44.47,37.55 C 44.57,37.98 44.59,38.46 44.94,38.77 C 44.94,38.77 44.94,38.79 44.92,38.79"
   class="ps01 ps10"
   id="path313"
   style="fill:#000000;" />
</g>
</g>
</g>
</g>
<g
   id="q18"
   class="">
<clipPath
   id="clp52"
   clip-rule="evenodd">
<path
   d="M -181.8,101.4 L 158.4,101.4 L 158.4,-84.4 L -181.8,-84.4 L -181.8,101.4 z"
   id="path317" />
</clipPath>
<g
   clip-path="url(#clp52)"
   id="g319">
<clipPath
   id="clp53"
   clip-rule="nonzero">
<path
   d="M -410,245.5 L 1177,245.5 L 1177,-405.5 L -410,-405.5 L -410,245.5 z"
   id="path322" />
</clipPath>
<g
   clip-path="url(#clp53)"
   id="g324">
<clipPath
   id="clp54"
   clip-rule="nonzero">
<path
   d="M -409.9,245.5 L 1177.1,245.5 L 1177.1,-405.5 L -409.9,-405.5 L -409.9,245.5 z"
   id="path327" />
</clipPath>
<g
   clip-path="url(#clp54)"
   id="g329">
<path
   d="M 58.5,38.79 C 58.36,38.85 58.19,38.83 58.05,38.79 C 58.03,38.62 58.23,38.64 58.26,38.5 C 58.26,38.35 58.42,38.23 58.34,38.09 C 57.99,38.19 57.7,38.44 57.37,38.6 C 57.22,38.52 57,38.48 56.9,38.35 C 56.94,38.33 56.98,38.31 57.04,38.31 C 57.37,38.09 57.51,37.65 57.58,37.28 C 57.58,37.22 57.49,37.16 57.53,37.1 C 57.68,37.14 57.84,37.24 58.01,37.3 C 57.99,37.39 57.86,37.39 57.8,37.45 C 57.74,37.65 57.53,37.82 57.64,38.04 C 57.99,37.86 58.32,37.63 58.67,37.41 C 58.71,37.41 58.75,37.41 58.79,37.41 C 58.69,37.88 58.4,38.29 58.5,38.79"
   class="ps01 ps10"
   id="path331"
   style="fill:#000000;" />
</g>
</g>
</g>
</g>
<g
   id="q19"
   class="">
<clipPath
   id="clp55"
   clip-rule="evenodd">
<path
   d="M -181.8,101.4 L 158.4,101.4 L 158.4,-84.4 L -181.8,-84.4 L -181.8,101.4 z"
   id="path335" />
</clipPath>
<g
   clip-path="url(#clp55)"
   id="g337">
<clipPath
   id="clp56"
   clip-rule="nonzero">
<path
   d="M -410,245.5 L 1177,245.5 L 1177,-405.5 L -410,-405.5 L -410,245.5 z"
   id="path340" />
</clipPath>
<g
   clip-path="url(#clp56)"
   id="g342">
<clipPath
   id="clp57"
   clip-rule="nonzero">
<path
   d="M -409.9,245.5 L 1177.1,245.5 L 1177.1,-405.5 L -409.9,-405.5 L -409.9,245.5 z"
   id="path345" />
</clipPath>
<g
   clip-path="url(#clp57)"
   id="g347">
<path
   d="M 46.3,38.02 C 46.71,37.96 46.78,37.55 46.88,37.24 L 46.9,37.24 C 46.96,37.32 47.15,37.43 47.11,37.59 C 46.82,37.92 46.47,38.19 46.07,38.31 C 45.81,38.4 45.5,38.29 45.29,38.13 C 45.07,37.9 45.07,37.55 45.15,37.28 C 45.35,36.75 45.87,36.5 46.4,36.46 C 46.45,36.5 46.55,36.56 46.51,36.66 C 46.28,36.73 46.03,36.71 45.83,36.83 C 45.64,36.93 45.5,37.1 45.5,37.32 C 45.5,37.55 45.6,37.74 45.72,37.9 C 45.87,38.04 46.1,38.07 46.3,38.02"
   class="ps01 ps10"
   id="path349"
   style="fill:#000000;" />
</g>
</g>
</g>
</g>
<g
   id="q20"
   class="">
<clipPath
   id="clp58"
   clip-rule="evenodd">
<path
   d="M -181.8,101.4 L 158.4,101.4 L 158.4,-84.4 L -181.8,-84.4 L -181.8,101.4 z"
   id="path353" />
</clipPath>
<g
   clip-path="url(#clp58)"
   id="g355">
<clipPath
   id="clp59"
   clip-rule="nonzero">
<path
   d="M -410,245.5 L 1177,245.5 L 1177,-405.5 L -410,-405.5 L -410,245.5 z"
   id="path358" />
</clipPath>
<g
   clip-path="url(#clp59)"
   id="g360">
<clipPath
   id="clp60"
   clip-rule="nonzero">
<path
   d="M -409.9,245.5 L 1177.1,245.5 L 1177.1,-405.5 L -409.9,-405.5 L -409.9,245.5 z"
   id="path363" />
</clipPath>
<g
   clip-path="url(#clp60)"
   id="g365">
<path
   d="M 57.08,37.01 C 57,36.93 56.87,36.89 56.77,36.93 C 56.71,37.06 56.57,37.14 56.54,37.28 C 56.65,37.45 56.81,37.49 57,37.49 C 57.04,37.57 56.96,37.65 56.94,37.74 C 56.9,37.78 56.87,37.9 56.77,37.82 C 56.79,37.63 56.57,37.57 56.44,37.51 C 56.36,37.59 56.21,37.67 56.24,37.82 C 56.34,37.9 56.44,38.02 56.57,38.07 C 56.65,38.13 56.79,37.98 56.85,38.13 C 56.81,38.19 56.81,38.35 56.67,38.31 C 56.36,38.11 56.03,37.92 55.7,37.72 C 55.7,37.69 55.7,37.67 55.7,37.65 C 55.7,37.55 55.84,37.63 55.89,37.57 C 56.17,37.26 56.48,36.89 56.54,36.46 C 56.87,36.54 57.06,36.95 57.41,36.99 C 57.43,37.12 57.39,37.26 57.31,37.39 C 57.18,37.26 57.25,37.08 57.08,37.01"
   class="ps01 ps10"
   id="path367"
   style="fill:#000000;" />
</g>
</g>
</g>
</g>
<g
   id="q21"
   class="">
<clipPath
   id="clp61"
   clip-rule="evenodd">
<path
   d="M -181.8,101.4 L 158.4,101.4 L 158.4,-84.4 L -181.8,-84.4 L -181.8,101.4 z"
   id="path371" />
</clipPath>
<g
   clip-path="url(#clp61)"
   id="g373">
<clipPath
   id="clp62"
   clip-rule="nonzero">
<path
   d="M -410,245.5 L 1177,245.5 L 1177,-405.5 L -410,-405.5 L -410,245.5 z"
   id="path376" />
</clipPath>
<g
   clip-path="url(#clp62)"
   id="g378">
<clipPath
   id="clp63"
   clip-rule="nonzero">
<path
   d="M -409.9,245.5 L 1177.1,245.5 L 1177.1,-405.5 L -409.9,-405.5 L -409.9,245.5 z"
   id="path381" />
</clipPath>
<g
   clip-path="url(#clp63)"
   id="g383">
<path
   d="M 56.13,36.38 C 55.91,36.64 55.7,36.95 55.51,37.24 C 55.66,37.86 55.16,37.2 54.98,37.16 C 55.33,37.04 55.49,36.62 55.7,36.35 C 55.84,36.25 55.76,36.05 55.8,35.92 C 55.99,35.98 56.13,36.15 56.3,36.25 C 56.34,36.38 56.19,36.33 56.13,36.38"
   class="ps01 ps10"
   id="path385"
   style="fill:#000000;" />
</g>
</g>
</g>
</g>
<g
   id="q22"
   class="">
<clipPath
   id="clp64"
   clip-rule="evenodd">
<path
   d="M -181.8,101.4 L 158.4,101.4 L 158.4,-84.4 L -181.8,-84.4 L -181.8,101.4 z"
   id="path389" />
</clipPath>
<g
   clip-path="url(#clp64)"
   id="g391">
<clipPath
   id="clp65"
   clip-rule="nonzero">
<path
   d="M -410,245.5 L 1177,245.5 L 1177,-405.5 L -410,-405.5 L -410,245.5 z"
   id="path394" />
</clipPath>
<g
   clip-path="url(#clp65)"
   id="g396">
<clipPath
   id="clp66"
   clip-rule="nonzero">
<path
   d="M -409.9,245.5 L 1177.1,245.5 L 1177.1,-405.5 L -409.9,-405.5 L -409.9,245.5 z"
   id="path399" />
</clipPath>
<g
   clip-path="url(#clp66)"
   id="g401">
<path
   d="M 47.29,36.66 C 47.08,36.46 47.02,36.11 46.71,36.05 C 46.69,35.86 46.98,35.78 47.11,35.65 C 47.15,35.65 47.21,35.65 47.21,35.72 C 47.08,35.9 47.35,36.07 47.43,36.25 C 47.68,36.25 47.95,36.07 48.07,35.86 C 47.99,35.67 47.93,35.41 47.7,35.34 C 47.77,35.18 48.05,35.1 48.24,35.06 C 48.18,35.49 48.53,35.84 48.73,36.21 C 48.77,36.33 48.94,36.19 48.94,36.33 C 48.73,36.42 48.59,36.62 48.36,36.62 C 48.36,36.44 48.38,36.21 48.2,36.11 C 47.99,36.21 47.68,36.29 47.62,36.52 C 47.72,36.66 47.81,36.87 48.01,36.89 C 47.87,37.06 47.66,37.12 47.52,37.24 C 47.54,37.01 47.37,36.85 47.29,36.66"
   class="ps01 ps10"
   id="path403"
   style="fill:#000000;" />
</g>
</g>
</g>
</g>
<g
   id="q23"
   class="">
<clipPath
   id="clp67"
   clip-rule="evenodd">
<path
   d="M -181.8,101.4 L 158.4,101.4 L 158.4,-84.4 L -181.8,-84.4 L -181.8,101.4 z"
   id="path407" />
</clipPath>
<g
   clip-path="url(#clp67)"
   id="g409">
<clipPath
   id="clp68"
   clip-rule="nonzero">
<path
   d="M -410,245.5 L 1177,245.5 L 1177,-405.5 L -410,-405.5 L -410,245.5 z"
   id="path412" />
</clipPath>
<g
   clip-path="url(#clp68)"
   id="g414">
<clipPath
   id="clp69"
   clip-rule="nonzero">
<path
   d="M -409.9,245.5 L 1177.1,245.5 L 1177.1,-405.5 L -409.9,-405.5 L -409.9,245.5 z"
   id="path417" />
</clipPath>
<g
   clip-path="url(#clp69)"
   id="g419">
<path
   d="M 55.2,36.6 C 54.63,37.14 54.05,36.48 53.51,36.29 C 53.49,36.09 53.8,36.21 53.84,35.98 C 53.99,35.67 54.28,35.39 54.22,35.04 C 54.69,35.22 55.37,35.39 55.45,35.98 C 55.41,36.21 55.41,36.44 55.2,36.6 M 55.04,35.67 C 55,35.57 54.88,35.47 54.77,35.43 C 54.52,35.37 54.46,35.65 54.36,35.8 C 54.24,36 54.11,36.19 54.09,36.42 C 54.32,36.66 54.75,36.58 54.92,36.29 C 55.04,36.13 55.12,35.88 55.04,35.67"
   class="ps01 ps10"
   id="path421"
   style="fill:#000000;" />
<g
   id="xfrm24"
   transform="scale(100,100)">
<g
   id="frm25"
   transform="scale(1e-2,1e-2)">
</g>
</g>
</g>
</g>
</g>
</g>
</g>
</svg>